<svg id="DESKTOP" xmlns="http://www.w3.org/2000/svg" viewBox="0 0 59.63 59.63"><defs><style>.cls-1{fill:#ed1b2e;}.cls-2{fill:#fff;}</style></defs><title>icon13</title><circle class="cls-1" cx="29.82" cy="29.82" r="29.82"/><path class="cls-2" d="M6191,3824.81a6.27,6.27,0,0,1-.55,2.68,6.49,6.49,0,0,1-1.5,2,7.1,7.1,0,0,1-2.17,1.37,8.28,8.28,0,0,1-2.63.61v2.27a1.24,1.24,0,0,1-1.07.53,1.47,1.47,0,0,1-1.15-.53v-2.27a10.7,10.7,0,0,1-4-1.21,11,11,0,0,1-3.48-2.94l2.75-2.46A9.75,9.75,0,0,0,6179,3827a5.32,5.32,0,0,0,2.95,1.23v-7.28c-0.88-.36-1.58-0.65-2.13-0.9l-1.06-.46a5.81,5.81,0,0,1-1.64-1.26,6.74,6.74,0,0,1-1.25-1.9,6.25,6.25,0,0,1-.53-2.37,5.14,5.14,0,0,1,.62-2.58,6.34,6.34,0,0,1,2.34-2.58,8.27,8.27,0,0,1,3.65-1.13v-1.93a1.55,1.55,0,0,1,1.13-.43,1.35,1.35,0,0,1,1.09.43v2a11.64,11.64,0,0,1,2.89.8,11.19,11.19,0,0,1,2.85,1.76l-1.78,2.94a6.62,6.62,0,0,0-1.86-1.4,9.17,9.17,0,0,0-2.1-.72v6.75c0.8,0.39,1.6.75,2.41,1.09a10.58,10.58,0,0,1,2.19,1.23,5.87,5.87,0,0,1,1.62,1.78A5.42,5.42,0,0,1,6191,3824.81Zm-9.07-13.8a3.82,3.82,0,0,0-2.2,1,3,3,0,0,0-1,1.93,2.3,2.3,0,0,0,.22,1.26,2.15,2.15,0,0,0,.73.79,4.26,4.26,0,0,0,1.06.53c0.41,0.15.81,0.31,1.24,0.51v-6Zm5.69,14a1.8,1.8,0,0,0-.32-1,3.5,3.5,0,0,0-.81-0.87,10.66,10.66,0,0,0-1.11-.72,10.19,10.19,0,0,0-1.23-.58v6.28a6.27,6.27,0,0,0,1.21-.34,5.28,5.28,0,0,0,1.13-.6,2.9,2.9,0,0,0,.81-0.9A2.38,2.38,0,0,0,6187.59,3825Z" transform="translate(-6152.01 -3790.02)"/><path class="cls-2" d="M6201.65,3810.72h-2.14v3.54a0.14,0.14,0,0,1-.14.14H6194a0.14,0.14,0,0,1-.14-0.14v-3.54h-2.14c-0.35,0-.43-0.2-0.18-0.45l4.72-4.71a0.63,0.63,0,0,1,.89,0l4.72,4.71C6202.08,3810.51,6202,3810.72,6201.65,3810.72Z" transform="translate(-6152.01 -3790.02)"/><rect class="cls-2" x="41.81" y="28.04" width="5.68" height="1.34" rx="0.14" ry="0.14"/><rect class="cls-2" x="41.81" y="25.53" width="5.68" height="1.34" rx="0.14" ry="0.14"/><rect class="cls-2" x="41.81" y="30.54" width="5.68" height="1.34" rx="0.14" ry="0.14"/><path class="cls-2" d="M6173.7,3829h-2.14v-3.54a0.14,0.14,0,0,0-.14-0.14H6166a0.14,0.14,0,0,0-.14.14V3829h-2.14c-0.35,0-.44.2-0.19,0.45l4.72,4.71a0.63,0.63,0,0,0,.9,0l4.72-4.71C6174.13,3829.17,6174,3829,6173.7,3829Z" transform="translate(-6152.01 -3790.02)"/><rect class="cls-2" x="13.86" y="30.25" width="5.68" height="1.34" rx="0.14" ry="0.14"/><rect class="cls-2" x="13.86" y="32.76" width="5.68" height="1.34" rx="0.14" ry="0.14"/><rect class="cls-2" x="13.86" y="27.74" width="5.68" height="1.34" rx="0.14" ry="0.14"/></svg>