<svg id="DESKTOP" xmlns="http://www.w3.org/2000/svg" viewBox="0 0 59.52 59.52"><defs><style>.cls-1{fill:#ed1b2e;}.cls-2{fill:#fff;}</style></defs><title>icon15</title><circle class="cls-1" cx="29.76" cy="29.76" r="29.76"/><path class="cls-2" d="M6838.73,3815.57a1.6,1.6,0,0,0-1.56-1.06l-9.54-.65a0.9,0.9,0,0,1-.59-0.43l-3.57-8.88a1.54,1.54,0,0,0-3,0l-3.57,8.88a0.9,0.9,0,0,1-.59.42l-9.54.65a1.54,1.54,0,0,0-.92,2.84l7.34,6.14a0.9,0.9,0,0,1,.22.69l-2.33,9.28a1.71,1.71,0,0,0,.24,1.54,1.59,1.59,0,0,0,2.17.21l8.1-5.08a1.22,1.22,0,0,1,.72,0l8.1,5.08a2,2,0,0,0,1,.33,1.42,1.42,0,0,0,1.13-.54,1.71,1.71,0,0,0,.25-1.54l-2.33-9.28a0.9,0.9,0,0,1,.22-0.69l7.34-6.14A1.6,1.6,0,0,0,6838.73,3815.57Z" transform="translate(-6791.96 -3790.65)"/></svg>