<svg id="DESKTOP" xmlns="http://www.w3.org/2000/svg" viewBox="0 0 60.04 60.04"><defs><style>.cls-1{fill:#ed1b2e;}.cls-2{fill:#fff;}</style></defs><title>icon16</title><circle class="cls-1" cx="30.02" cy="30.02" r="30.02"/><path class="cls-2" d="M6199.66,3913.87v-1.29a2.54,2.54,0,0,0-.51-1.89,2.7,2.7,0,0,0-2.22-.9h-0.68v-0.68a4.07,4.07,0,0,0-2.66-3.62,40.44,40.44,0,0,0-23.27,0,4.07,4.07,0,0,0-2.66,3.62v0.68H6167a2.7,2.7,0,0,0-2.22.9,2.54,2.54,0,0,0-.51,1.89v1.29a1.37,1.37,0,0,0-1.36,1.36v5.44a1.37,1.37,0,0,0,1.36,1.36h1.36a1.37,1.37,0,0,0,1.36-1.36v-5.44a1.36,1.36,0,0,0-.68-1.17v-1.55l0-.18a0.53,0.53,0,0,1,.06-0.35,0.92,0.92,0,0,1,.63-0.15h0.68v23.82a2.73,2.73,0,0,0,2,2.62v1.46a1.37,1.37,0,0,0,1.36,1.36h2a1.37,1.37,0,0,0,1.36-1.36v-1.36h15v1.36a1.37,1.37,0,0,0,1.36,1.36h2a1.37,1.37,0,0,0,1.36-1.36v-1.46a2.73,2.73,0,0,0,2-2.62v-23.82h0.68a0.92,0.92,0,0,1,.63.15,0.53,0.53,0,0,1,.07.33v1.75a1.36,1.36,0,0,0-.69,1.18v5.44a1.37,1.37,0,0,0,1.36,1.36h1.36a1.37,1.37,0,0,0,1.36-1.36v-5.44A1.37,1.37,0,0,0,6199.66,3913.87Zm-23.82,20.42h-3.4a1.37,1.37,0,0,1-1.36-1.36v-1.36a0.92,0.92,0,0,1,1.29-.93l3.54,1.18a1.81,1.81,0,0,1,1.29,1.45A1.23,1.23,0,0,1,6175.84,3934.29Zm17-1.36a1.37,1.37,0,0,1-1.36,1.36h-3.4a1.23,1.23,0,0,1-1.36-1,1.81,1.81,0,0,1,1.29-1.45l3.54-1.18a0.92,0.92,0,0,1,1.29.93v1.36Zm0-10.89a3.49,3.49,0,0,1-2.7,3.26,45.36,45.36,0,0,1-16.39,0,3.49,3.49,0,0,1-2.7-3.26v-10.21a3.52,3.52,0,0,1,2.7-3.29c1.14-.2,2.28-0.35,3.43-0.47h0a1.23,1.23,0,0,0,1.36,1h6.81a1.23,1.23,0,0,0,1.36-1h0c1.15,0.12,2.29.27,3.43,0.47a3.52,3.52,0,0,1,2.7,3.29V3922Z" transform="translate(-6151.98 -3891.88)"/></svg>