<svg id="DESKTOP" xmlns="http://www.w3.org/2000/svg" viewBox="0 0 60.7 60.7"><defs><style>.cls-1{fill:#ed1b2e;}.cls-2{fill:#fff;}</style></defs><title>icon14</title><circle class="cls-1" cx="30.35" cy="30.35" r="30.35"/><path class="cls-2" d="M6514.22,3807.85q-0.07,1.08-.2,2.13a12.62,12.62,0,0,1,1.5.23c1.48,0.34,1.63.81,1.63,1.87,0,1.88-2.4,4.78-5.71,7.09a19.13,19.13,0,0,1-2.47,3.93c5.59-2.64,10.32-7.55,10.32-11C6519.3,3809.29,6517.89,3808.24,6514.22,3807.85Z" transform="translate(-6471.09 -3791.11)"/><path class="cls-2" d="M6485.72,3812.08c0-1.19.16-1.8,3.13-2.09q-0.13-1.06-.21-2.15a14.51,14.51,0,0,0-1.79.28c-2.3.53-3.29,1.72-3.29,4,0,3.42,4.66,8.24,10.23,10.91a19.36,19.36,0,0,1-2.42-3.92C6488.1,3816.77,6485.72,3813.93,6485.72,3812.08Z" transform="translate(-6471.09 -3791.11)"/><path class="cls-2" d="M6508.37,3835.4a5.39,5.39,0,0,1-4.57-4h-4.72a5.39,5.39,0,0,1-4.58,4,0.72,0.72,0,0,0-.63.71v1.11a0.36,0.36,0,0,0,.36.36h14.42a0.36,0.36,0,0,0,.36-0.36v-1.11A0.71,0.71,0,0,0,6508.37,3835.4Z" transform="translate(-6471.09 -3791.11)"/><path class="cls-2" d="M6499.23,3829.28h4.41c0.24-3.1,1.92-4.5,4.07-8,2.58-3.43,4.31-8.94,4.45-15.19a0.72,0.72,0,0,0-.71-0.73h-20a0.72,0.72,0,0,0-.72.73c0.14,6.26,1.87,11.77,4.46,15.2C6497.32,3824.79,6499,3826.19,6499.23,3829.28Z" transform="translate(-6471.09 -3791.11)"/></svg>