<svg id="DESKTOP" xmlns="http://www.w3.org/2000/svg" viewBox="0 0 59.9 59.91"><defs><style>.cls-1{fill:#ed1b2e;}.cls-2{fill:#fff;}</style></defs><title>icon12</title><circle class="cls-1" cx="29.95" cy="29.95" r="29.95"/><path class="cls-2" d="M6830,3709.2a1,1,0,0,0,1-1v-4.42a1,1,0,0,0-2.07,0v4.42A1,1,0,0,0,6830,3709.2Zm-16.35,0a1,1,0,0,0,1-1v-4.42a1,1,0,0,0-2.07,0v4.42A1,1,0,0,0,6813.61,3709.2Zm-8.31,20.91a4.6,4.6,0,0,0,4.59,4.59h23.69a4.6,4.6,0,0,0,4.59-4.59v-16h-32.87v16Zm24.42-13.84h6.1v4.62h-6.1v-4.62Zm0,5.62h6.1v4.62h-6.1v-4.62Zm0,10.34,6.1-4.68v2.55a2.24,2.24,0,0,1-2.24,2.24h-3.86v-0.12Zm-7.49-16h6.48v4.62h-6.48v-4.62Zm0,5.62h6.48v4.62h-6.48v-4.62Zm0,5.62h6.48v4.83h-6.48v-4.83Zm-7.49-11.25h6.48v4.62h-6.48v-4.62Zm0,5.62h6.48v4.62h-6.48v-4.62Zm0,5.62h6.48v4.83h-6.48v-4.83Zm-7.09-11.25h6.08v4.62h-6.08v-4.62Zm0,5.62h6.08v4.62h-6.08v-4.62Zm0,5.62h6.08v4.83h-3.84a2.24,2.24,0,0,1-2.24-2.24v-2.59Zm25.93-21.5H6832v2.14a2,2,0,0,1-4.09,0V3706h-12.26v2.14a2,2,0,1,1-4.09,0V3706h-1.67a4.6,4.6,0,0,0-4.59,4.59v1.69h32.87v-1.69A4.6,4.6,0,0,0,6833.59,3706Z" transform="translate(-6791.79 -3688.88)"/></svg>