<svg id="DESKTOP" xmlns="http://www.w3.org/2000/svg" viewBox="0 0 59.19 59.19"><defs><style>.cls-1{fill:#ed1b2e;}.cls-2{fill:#fff;}</style></defs><title>icon4</title><circle class="cls-1" cx="29.59" cy="29.59" r="29.59"/><path class="cls-2" d="M6185.53,3508.31a9.76,9.76,0,0,1,0,17.83c6.8-1.82,12.12-7.65,13.2-8.91C6197.64,3516,6192.32,3510.13,6185.53,3508.31Z" transform="translate(-6151.96 -3487.63)"/><path class="cls-2" d="M6171.79,3517.22a9.77,9.77,0,0,1,5.79-8.91c-6.79,1.82-12.12,7.65-13.2,8.91,1.09,1.26,6.41,7.09,13.2,8.91A9.77,9.77,0,0,1,6171.79,3517.22Z" transform="translate(-6151.96 -3487.63)"/><path class="cls-2" d="M6199.53,3517a33.54,33.54,0,0,0-5.24-5c-3-2.28-7.58-5-12.74-5s-9.77,2.72-12.74,5a33.54,33.54,0,0,0-5.24,5l-0.19.24,0.19,0.24a33.42,33.42,0,0,0,5.24,5c3,2.28,7.58,5,12.74,5s9.77-2.72,12.74-5a33.42,33.42,0,0,0,5.24-5l0.19-.24Zm-35.16.24c1.09-1.26,6.41-7.1,13.2-8.91a9.76,9.76,0,0,0,0,17.83C6170.78,3524.32,6165.46,3518.48,6164.37,3517.22Zm8.19,0a9,9,0,1,1,9,9A9,9,0,0,1,6172.56,3517.22Zm13,8.91a9.76,9.76,0,0,0,0-17.83c6.8,1.82,12.12,7.65,13.2,8.91C6197.64,3518.48,6192.32,3524.32,6185.53,3526.14Z" transform="translate(-6151.96 -3487.63)"/><path class="cls-2" d="M6187.09,3514a1.84,1.84,0,1,1-2.6-2.47A6.41,6.41,0,1,0,6187.09,3514Z" transform="translate(-6151.96 -3487.63)"/></svg>