<svg id="DESKTOP" xmlns="http://www.w3.org/2000/svg" viewBox="0 0 59.49 59.49"><defs><style>.cls-1{fill:#ed1b2e;}.cls-2{fill:#fff;}</style></defs><title>icon3</title><circle class="cls-1" cx="29.74" cy="29.74" r="29.74"/><path class="cls-2" d="M6835.54,3403.62a10.31,10.31,0,0,0-3.11-4,8.73,8.73,0,0,0-4.71-1.71,5,5,0,0,0-.73.05,10.68,10.68,0,0,0-3.46,1.36,14.61,14.61,0,0,1-1.88.9,14.43,14.43,0,0,1-1.88-.9,10.68,10.68,0,0,0-3.46-1.36,5,5,0,0,0-.73-0.05,8.73,8.73,0,0,0-4.71,1.71,10.31,10.31,0,0,0-3.11,4,11.12,11.12,0,0,0-.67,6.2,28.62,28.62,0,0,0,2.45,7.14c0.32,0.71.65,1.44,0.94,2.15a27.82,27.82,0,0,1,2,8.75c0.18,2.11.47,5.63,3.23,6.94a5.32,5.32,0,0,0,1.91.46,1.66,1.66,0,0,0,1.34-.56,1.53,1.53,0,0,0,.3-1.29,23.68,23.68,0,0,1-.32-7.44c0.39-4,1.71-4,2.68-4s2.28,0,2.68,4a23.55,23.55,0,0,1-.32,7.41,1.53,1.53,0,0,0,.3,1.29,1.66,1.66,0,0,0,1.34.56,5.3,5.3,0,0,0,1.91-.46c2.76-1.31,3.05-4.83,3.23-6.94a27.81,27.81,0,0,1,2-8.75c0.3-.72.62-1.45,0.94-2.15a28.59,28.59,0,0,0,2.46-7.14A11.12,11.12,0,0,0,6835.54,3403.62Zm-1.41,5.87a26.48,26.48,0,0,1-2.3,6.61c-0.32.72-.66,1.46-1,2.21a30.16,30.16,0,0,0-2.17,9.38c-0.19,2.23-.5,4.48-2,5.21a3.09,3.09,0,0,1-.45.16,25.08,25.08,0,0,0,.22-7.28c-0.4-4.08-1.87-5.9-4.78-5.9s-4.38,1.82-4.77,5.87a25.17,25.17,0,0,0,.21,7.31,3.22,3.22,0,0,1-.45-0.16c-1.53-.73-1.84-3-2-5.21a30.17,30.17,0,0,0-2.17-9.38c-0.31-.75-0.64-1.49-1-2.21a26.58,26.58,0,0,1-2.3-6.61,9,9,0,0,1,.53-5,8.2,8.2,0,0,1,2.38-3.16,6.52,6.52,0,0,1,3.5-1.33,2.87,2.87,0,0,1,.42,0,9,9,0,0,1,2.77,1.13,14.36,14.36,0,0,0,2.5,1.14l0.15,0h0.46l0.15,0a14.36,14.36,0,0,0,2.5-1.14,9,9,0,0,1,2.77-1.13,6,6,0,0,1,3.92,1.3,8.18,8.18,0,0,1,2.38,3.16A9,9,0,0,1,6834.13,3409.48Z" transform="translate(-6791.91 -3386.82)"/></svg>