<svg id="DESKTOP" xmlns="http://www.w3.org/2000/svg" viewBox="0 0 59.88 59.88"><defs><style>.cls-1{fill:#ed1b2e;}.cls-2{fill:#fff;}</style></defs><title>icon10</title><circle class="cls-1" cx="29.94" cy="29.94" r="29.94"/><path class="cls-2" d="M6191.38,3725.11a2.18,2.18,0,0,0-.45,4.32,6.42,6.42,0,1,1-12.84,0v-3h0.71v-0.65a7.48,7.48,0,0,0,6.26-7.35v-11.34a7.46,7.46,0,0,0-1.65-4.66,1.07,1.07,0,0,0-.9-1.09,1.4,1.4,0,0,0,0,2.63,0.76,0.76,0,0,0,.55-0.26,6.36,6.36,0,0,1,1,3.38v11.2a9.58,9.58,0,0,1-12.84-.06v-11.14a6.36,6.36,0,0,1,1-3.38,0.76,0.76,0,0,0,.55.26,1.4,1.4,0,0,0,0-2.63,1.08,1.08,0,0,0-.9,1.09,7.45,7.45,0,0,0-1.65,4.66v11.34a7.51,7.51,0,0,0,6.15,7.34v0.67h0.76v3a7.45,7.45,0,1,0,14.9,0v0A2.18,2.18,0,0,0,6191.38,3725.11Zm-15.08-.69v0.29a6.39,6.39,0,0,1-5.1-6,9.94,9.94,0,0,0,12.81.06,6.47,6.47,0,0,1-5.21,5.95v-0.31h-2.5Zm15.12,3.88a1,1,0,1,1,1-1A1,1,0,0,1,6191.42,3728.3Z" transform="translate(-6151.92 -3689.16)"/></svg>