<svg xmlns="http://www.w3.org/2000/svg" xmlns:xlink="http://www.w3.org/1999/xlink" viewBox="0 0 221.09 76.12"><defs><style>.cls-1{fill:none;}.cls-2{isolation:isolate;}.cls-3,.cls-9{mix-blend-mode:multiply;}.cls-3{fill:url(#radial-gradient);}.cls-4{fill:#fffffe;}.cls-5,.cls-8{opacity:0.8;}.cls-5{fill:url(#radial-gradient-2);}.cls-6{opacity:0.77;}.cls-7{clip-path:url(#clip-path);}.cls-8{fill:url(#radial-gradient-3);}.cls-10{fill:#e2231a;}.cls-11{fill:url(#linear-gradient);}.cls-12{fill:#55565a;}</style><radialGradient id="radial-gradient" cx="-21.4" cy="-60.65" r="35.1" gradientTransform="translate(52.65 105.02) rotate(6)" gradientUnits="userSpaceOnUse"><stop offset="0.78" stop-color="#55565a"/><stop offset="1" stop-color="#55565a" stop-opacity="0"/></radialGradient><radialGradient id="radial-gradient-2" cx="-23.33" cy="-64.93" fy="-82.30133716047833" r="33.67" gradientTransform="translate(52.62 105.32) rotate(6)" gradientUnits="userSpaceOnUse"><stop offset="0.06" stop-color="#fff"/><stop offset="0.45" stop-color="#fdfdfd"/><stop offset="0.59" stop-color="#f7f6f6"/><stop offset="0.67" stop-color="#f0eeee"/><stop offset="0.85" stop-color="#e0dfdf"/><stop offset="0.97" stop-color="#c2c1c3"/><stop offset="1" stop-color="#fff"/></radialGradient><clipPath id="clip-path" transform="translate(-0.1 -1.45)"><path class="cls-1" d="M69.07,41.92A33.17,33.17,0,1,1,39.54,5.45,33.18,33.18,0,0,1,69.07,41.92Z"/></clipPath><radialGradient id="radial-gradient-3" cx="188.6" cy="-424.67" fy="-443.2092582815161" r="35.94" gradientTransform="matrix(0.93, -0.36, 0.36, 0.94, 12.78, 502.3)" gradientUnits="userSpaceOnUse"><stop offset="0.06" stop-color="#fff"/><stop offset="0.53" stop-color="#fdfdfd"/><stop offset="0.7" stop-color="#f7f6f6"/><stop offset="0.8" stop-color="#f0eeee"/><stop offset="0.91" stop-color="#e0dfdf"/><stop offset="0.94" stop-color="#c2c1c3"/><stop offset="0.96" stop-color="#cac9ca"/><stop offset="0.98" stop-color="#fff"/><stop offset="1" stop-color="#fff"/></radialGradient><linearGradient id="linear-gradient" x1="-250.93" y1="-200.48" x2="-250.93" y2="-136.67" gradientTransform="translate(286.92 205.74)" gradientUnits="userSpaceOnUse"><stop offset="0.38" stop-color="#fff"/><stop offset="1" stop-color="#9a9a9c"/></linearGradient></defs><title>american_red_cross_logo</title><g class="cls-2"><g id="Layer_1" data-name="Layer 1"><path class="cls-3" d="M72.6,46.14A35.09,35.09,0,1,1,41.37,7.56,35.1,35.1,0,0,1,72.6,46.14Z" transform="translate(-0.1 -1.45)"/><path class="cls-4" d="M69.07,41.92A33.17,33.17,0,1,1,39.54,5.45,33.17,33.17,0,0,1,69.07,41.92Z" transform="translate(-0.1 -1.45)"/><path class="cls-5" d="M69.07,41.92A33.17,33.17,0,1,1,39.54,5.45,33.17,33.17,0,0,1,69.07,41.92Z" transform="translate(-0.1 -1.45)"/><g class="cls-6"><g class="cls-7"><path class="cls-8" d="M68.57,24.15A35.41,35.41,0,1,1,22.79,3.83,35.41,35.41,0,0,1,68.57,24.15Z" transform="translate(-0.1 -1.45)"/></g></g><g class="cls-9"><polygon class="cls-10" points="58.28 29.56 43.41 29.55 43.42 14.7 28.56 14.7 28.56 29.55 13.71 29.55 13.71 44.41 28.56 44.41 28.56 59.27 43.41 59.27 43.41 44.41 58.28 44.41 58.28 29.56"/></g><g class="cls-9"><polygon class="cls-11" points="58.28 29.56 43.41 29.55 43.42 14.7 28.56 14.7 28.56 29.55 13.71 29.55 13.71 44.41 28.56 44.41 28.56 59.27 43.41 59.27 43.41 44.41 58.28 44.41 58.28 29.56"/></g><path class="cls-12" d="M102.67,35.61h6.08L101.62,16.5H95.16l-7.3,19.11h6.08l0.91-2.86h6.93Zm-6.58-6.94,2.28-7.38,2.22,7.38h-4.5Z" transform="translate(-0.1 -1.45)"/><path class="cls-12" d="M119.56,27.2a4.41,4.41,0,0,1,.08.85v7.56h5.2V28.12a3.08,3.08,0,0,1,.29-1.46,1.86,1.86,0,0,1,1.85-1c2.14,0,2.06,1.75,2.06,2.6v7.35h5.19c0-.36,0-9,0-9h0A5.12,5.12,0,0,0,133,22.6a5.31,5.31,0,0,0-3.76-1.35c-3.33,0-4.26,1.77-4.52,2.36l-0.16.36-0.18-.35a3.78,3.78,0,0,0-2.62-2.05,7,7,0,0,0-2.08-.32c-2.89,0-3.62,1.37-4.06,2.09l-0.38.61V21.61h-5v14h5.2V27.89a2.19,2.19,0,0,1,.59-1.6,2,2,0,0,1,1.54-.62A1.9,1.9,0,0,1,119.56,27.2Z" transform="translate(-0.1 -1.45)"/><path class="cls-12" d="M146.88,30.47a2.9,2.9,0,0,1-2.71,1.93,2.51,2.51,0,0,1-1.81-.7,2.68,2.68,0,0,1-.73-2V29.48h9.79c-0.05-2.1-.13-4.34-2.07-6.25A8.06,8.06,0,0,0,143.84,21a7.18,7.18,0,0,0-7.52,7.52,7.62,7.62,0,0,0,1.87,5.15,7.54,7.54,0,0,0,5.68,2.48,8.55,8.55,0,0,0,7.25-3.92Zm-5.19-4A2.28,2.28,0,0,1,144,24.36a2.06,2.06,0,0,1,2,1.58,2,2,0,0,1,.07.36l0,0.42h-4.5Z" transform="translate(-0.1 -1.45)"/><path class="cls-12" d="M158.4,21.5h-5V35.61h5.17V29h0c0-.88.09-3.23,3.54-3.23,0.32,0,.83,0,1.14,0v-4.5a6,6,0,0,0-4.56,1.65l-0.31.28V21.5Z" transform="translate(-0.1 -1.45)"/><path class="cls-12" d="M165.15,16.52h5.56v3.69h-5.56V16.52Zm0,5.07h5.56v14h-5.56v-14Z" transform="translate(-0.1 -1.45)"/><path class="cls-12" d="M185.71,33.79a6.88,6.88,0,0,0,1.35-2l-4-2.2c-0.29.92-1,2.45-2.65,2.45-1.18,0-2.59-.59-2.59-3.41,0-2.45,1-4,2.73-4,1.21,0,2.06.73,2.5,2.23l4-2.27a7.55,7.55,0,0,0-1.1-1.41,8.09,8.09,0,0,0-5.68-2.29,7.67,7.67,0,0,0-5.66,2.2,7.73,7.73,0,0,0-1.95,5.34c0,4.54,2.86,7.65,7.28,7.65A7.87,7.87,0,0,0,185.71,33.79Z" transform="translate(-0.1 -1.45)"/><path class="cls-12" d="M193.44,35.91a7.14,7.14,0,0,0,4.49-1.35l0.33-.22v1.28h5a2.62,2.62,0,0,1-.33-1.56V26.23a4.76,4.76,0,0,0-.79-3.07c-1-1.23-2.86-2-5.67-2a10.68,10.68,0,0,0-4.94,1A4.47,4.47,0,0,0,189,25.78l4.84-.13c0.22-1.12.76-1.48,2-1.48,1.68,0,2.05.71,2.08,1.78V26.1l-0.14,0a18.42,18.42,0,0,1-3,.6c-2.34.31-3.89,0.51-5.14,1.78a3.91,3.91,0,0,0-1.14,2.87C188.57,33.49,189.85,35.91,193.44,35.91Zm1.17-5.9h0c0.44-.15.88-0.25,1.3-0.35l0.15,0c0.54-.15,1.07-0.34,1.58-0.51L198,29v0.26a3.47,3.47,0,0,1-.29,1.61,3.13,3.13,0,0,1-2.74,1.63c-1.15,0-1.57-.63-1.57-1.12A1.59,1.59,0,0,1,194.61,30Z" transform="translate(-0.1 -1.45)"/><path class="cls-12" d="M215,27.93v7.67h5.2V26.74c0-.75,0-3-1.35-4.27a5,5,0,0,0-3.58-1.25c-2.93,0-3.83,1.42-4.31,2.11l-0.37.52V21.58h-4.9v14h5.2V28.12c0-.62,0-2.49,2.1-2.49S215,27.31,215,27.93Z" transform="translate(-0.1 -1.45)"/><path class="cls-12" d="M101,53.18l0.33-.13a5.57,5.57,0,0,0,2.27-1.37A5.27,5.27,0,0,0,105,47.9c0-1.93-.84-4.46-3.18-5.46a13.35,13.35,0,0,0-4.63-.58H87.86V61h5.68V54.06h2.09L99.45,61h6.26l-4.59-7.61Zm-4.76-2.86h-2.7V45.67h2.68c0.94,0,3.14,0,3.14,2.32S97.09,50.32,96.24,50.32Z" transform="translate(-0.1 -1.45)"/><path class="cls-12" d="M122.44,53.65c0,4.55,2.4,7.68,6.11,7.68a5.65,5.65,0,0,0,2-.34A2.87,2.87,0,0,0,132,60l0.33-.38V61h5V41.89h-5.19v6.29l-0.37-.33a4.44,4.44,0,0,0-3.39-1.28C125.41,46.57,122.44,48.89,122.44,53.65Zm7.47-3.3A2.28,2.28,0,0,1,132,52.11a5.58,5.58,0,0,1,.23,1.82,4.19,4.19,0,0,1-.79,2.89,2.23,2.23,0,0,1-1.54.68,2.11,2.11,0,0,1-1.54-.65,4.11,4.11,0,0,1-.84-2.89,7.72,7.72,0,0,1,.16-1.69h0A2.27,2.27,0,0,1,129.91,50.35Z" transform="translate(-0.1 -1.45)"/><path class="cls-12" d="M116.45,55.87a2.9,2.9,0,0,1-2.71,1.93,2.53,2.53,0,0,1-1.81-.7,2.64,2.64,0,0,1-.73-2V54.88H121c-0.05-2.09-.13-4.34-2.07-6.25a8.07,8.07,0,0,0-5.5-2.22,7.18,7.18,0,0,0-7.52,7.52,7.63,7.63,0,0,0,1.87,5.15,7.55,7.55,0,0,0,5.68,2.48,8.54,8.54,0,0,0,7.25-3.92Zm-5.19-4a2.28,2.28,0,0,1,2.29-2.12,2.07,2.07,0,0,1,2.05,1.58,1.85,1.85,0,0,1,.06.36l0,0.42h-4.5Z" transform="translate(-0.1 -1.45)"/><path class="cls-12" d="M151.36,55.11a7.5,7.5,0,0,1-.93-3.92,6.16,6.16,0,0,1,1.49-4.44,3.76,3.76,0,0,1,2.7-1.08c2.58,0,3.64,2.15,4.12,3.27l4.78-2.38a9.79,9.79,0,0,0-9.14-5.38,9.23,9.23,0,0,0-7.23,3.22,11.28,11.28,0,0,0-2.48,7.13A10.72,10.72,0,0,0,147,58.42a9.36,9.36,0,0,0,7.36,3.15,10.26,10.26,0,0,0,7.28-2.8A11.5,11.5,0,0,0,163.55,56l-4.85-2.35c-0.92,2.52-2.73,3.24-4,3.24A3.64,3.64,0,0,1,151.36,55.11Z" transform="translate(-0.1 -1.45)"/><path class="cls-12" d="M189.62,48.39a9.3,9.3,0,0,0-11.78.19,8.32,8.32,0,0,0-.22,10.66,7.89,7.89,0,0,0,6,2.28,8.68,8.68,0,0,0,6-2.09A7.33,7.33,0,0,0,191.74,54,8.14,8.14,0,0,0,189.62,48.39Zm-5.87,9.43c-2.42,0-2.79-2.44-2.79-3.9s0.36-3.75,2.75-3.81a2.42,2.42,0,0,1,1.83.64,4.24,4.24,0,0,1,1,3.12C186.5,57.13,185,57.82,183.74,57.82Z" transform="translate(-0.1 -1.45)"/><path class="cls-12" d="M204.4,52.77a15.86,15.86,0,0,0-3.71-1l-0.11,0c-1.84-.45-2.28-0.55-2.28-1.13,0-.35.18-0.92,1.38-0.92A7.29,7.29,0,0,1,203.41,51l2.79-2.54a8.83,8.83,0,0,0-3.49-1.73,13.71,13.71,0,0,0-3.12-.37A6.79,6.79,0,0,0,194.78,48a4.67,4.67,0,0,0-1.35,3.21c0,2.84,2.43,3.63,3.73,4a23.74,23.74,0,0,0,2.89.64c0.55,0.08,1.57.21,1.57,1S200.8,58,200,58a6,6,0,0,1-2.29-.47A6.79,6.79,0,0,1,195.51,56l-2.87,2.64A11.09,11.09,0,0,0,200,61.52c4.47,0,6.47-2.53,6.47-5.19A3.92,3.92,0,0,0,204.4,52.77Z" transform="translate(-0.1 -1.45)"/><path class="cls-12" d="M219.1,52.77a15.87,15.87,0,0,0-3.72-1l-0.11,0c-1.84-.45-2.28-0.55-2.28-1.13,0-.35.18-0.92,1.38-0.92A7.31,7.31,0,0,1,218.12,51l2.79-2.54a8.86,8.86,0,0,0-3.49-1.73,13.74,13.74,0,0,0-3.12-.37A6.78,6.78,0,0,0,209.48,48a4.67,4.67,0,0,0-1.35,3.21c0,2.84,2.43,3.63,3.73,4a23.83,23.83,0,0,0,2.9.64c0.55,0.08,1.57.21,1.57,1S215.49,58,214.67,58a6,6,0,0,1-2.29-.47A6.84,6.84,0,0,1,210.21,56l-2.87,2.64a11.08,11.08,0,0,0,7.39,2.87c4.47,0,6.46-2.53,6.46-5.19A3.92,3.92,0,0,0,219.1,52.77Z" transform="translate(-0.1 -1.45)"/><path class="cls-12" d="M169.93,46.89h-5V61h5.17V54.38h0c0-.88.09-3.24,3.54-3.24,0.32,0,.83,0,1.14,0V46.67a6,6,0,0,0-4.55,1.66l-0.31.28V46.89Z" transform="translate(-0.1 -1.45)"/></g></g></svg>