<svg id="Layer_1" data-name="Layer 1" xmlns="http://www.w3.org/2000/svg" viewBox="0 0 175.38 77.66"><defs><style>.cls-1{fill:#026cb6;}.cls-2{fill:#fdbb30;}</style></defs><title>apria_logo</title><path class="cls-1" d="M89.75,98.13H86.41l-0.7,2.08c-0.34,1-.52,1.79.56,1.81v0.31H83.59V102c1-.14,1.21-0.67,1.53-1.62L88,91.87H89l3,8.9c0.31,1,.56,1.25,1.48,1.25v0.31H89.88V102c0.7,0,1-.31.81-1Zm-1.66-5h0L86.61,97.5h2.91Z" transform="translate(-83.59 -24.83)"/><path class="cls-1" d="M99.2,100.71c0,1.11.39,1.21,1.23,1.29v0.33H96.65V102c0.9-.08,1.21-0.18,1.21-1.29V96.48a1,1,0,0,0-1.21-1.27V94.88h3.63a5.89,5.89,0,0,1,2,.27,2,2,0,0,1,1.27,1.79c0,2-2.55,2.09-2.94,2.09a5.71,5.71,0,0,1-1.4-.18v1.85Zm0-2.22a4.1,4.1,0,0,0,1,.14A1.67,1.67,0,0,0,102.11,97a1.7,1.7,0,0,0-1.83-1.77H99.2v3.27Z" transform="translate(-83.59 -24.83)"/><path class="cls-1" d="M108.13,96.48a1,1,0,0,0-1.21-1.27V94.88h3.7c0.58,0,3,0,3,2a2,2,0,0,1-1.72,1.85c0.78,0.37,1.13.84,2.18,2.28a1.91,1.91,0,0,0,1.75,1v0.33h-2.22a17.28,17.28,0,0,1-1.64-2.09C111.11,99,110.66,99,110.13,99h-0.64v1.73A1,1,0,0,0,110.7,102v0.33h-3.78V102a1,1,0,0,0,1.21-1.29V96.48Zm1.36,2.12h1a1.56,1.56,0,0,0,1.77-1.71,1.46,1.46,0,0,0-1.58-1.68h-1.17V98.6Z" transform="translate(-83.59 -24.83)"/><path class="cls-1" d="M121.37,100.71c0,1.13.43,1.21,1.23,1.29v0.33h-3.8V102c0.8-.08,1.23-0.16,1.23-1.29V96.48c0-1.11-.43-1.19-1.23-1.27V94.88h3.8v0.33c-0.8.08-1.23,0.16-1.23,1.27v4.23Z" transform="translate(-83.59 -24.83)"/><path class="cls-1" d="M127.47,100.82a1.43,1.43,0,0,0-.12.51,0.8,0.8,0,0,0,.8.66v0.33h-2.42V102c0.72-.16.92-0.31,1.38-1.6l2.11-5.65h1.05l2.09,5.71c0.43,1.17.6,1.46,1.54,1.54v0.33h-3.49V102c0.43,0,.88-0.1.88-0.51a1.49,1.49,0,0,0-.14-0.53l-0.56-1.58H128Zm2.94-1.95L129.3,95.8l-1.15,3.08h2.26Z" transform="translate(-83.59 -24.83)"/><path class="cls-1" d="M145.39,97.38v3c0,1.25.31,1.64,1.19,1.64v0.31h-3.74V102c0.79,0,1.17-.27,1.17-1.64V93.93c0-1.23-.25-1.64-1.17-1.64V92h3.74v0.31c-0.81,0-1.19.32-1.19,1.64v2.94H151V93.93c0-1.26-.27-1.64-1.15-1.64V92h3.7v0.31c-0.89,0-1.17.42-1.17,1.64v6.45c0,1.23.29,1.64,1.17,1.64v0.31h-3.7V102c0.81,0,1.15-.27,1.15-1.64v-3h-5.63Z" transform="translate(-83.59 -24.83)"/><path class="cls-1" d="M160.18,100.75c0,1.25.16,1.25,0.94,1.25h1.15a1.62,1.62,0,0,0,1.71-1.11h0.35L164,102.32h-6.35V102c0.9-.08,1.23-0.18,1.23-1.29V96.48c0-1.07-.33-1.19-1.23-1.27V94.88h6.24L164,96.28h-0.35A1.36,1.36,0,0,0,162,95.21h-1.77v3.2h1.32a1,1,0,0,0,1.23-1h0.33v2.47h-0.33c0-.43-0.06-1-1.23-1h-1.32v1.89Z" transform="translate(-83.59 -24.83)"/><path class="cls-1" d="M169.24,100.82a1.42,1.42,0,0,0-.12.51,0.8,0.8,0,0,0,.8.66v0.33h-2.42V102c0.72-.16.92-0.31,1.38-1.6l2.1-5.65H172l2.08,5.71c0.43,1.17.61,1.46,1.54,1.54v0.33h-3.49V102c0.43,0,.87-0.1.87-0.51a1.51,1.51,0,0,0-.13-0.53l-0.56-1.58h-2.59Zm2.94-1.95-1.11-3.08-1.15,3.08h2.26Z" transform="translate(-83.59 -24.83)"/><path class="cls-1" d="M181.55,101.14c0,0.62.21,0.76,0.92,0.76h1.37c0.93,0,1-.21,1.62-1.64h0.35l-0.6,2.06H179V102c0.8-.08,1.23-0.16,1.23-1.29V96.48c0-1.11-.43-1.19-1.23-1.27V94.88h3.78v0.33c-0.93.08-1.23,0.27-1.23,1.27v4.66Z" transform="translate(-83.59 -24.83)"/><path class="cls-1" d="M193.52,100.71a1,1,0,0,0,1.21,1.29v0.33h-3.82V102c0.8-.08,1.23-0.16,1.23-1.29V95.37H191a1.39,1.39,0,0,0-1.46,1.44h-0.31l0.06-2.3h0.33a1.48,1.48,0,0,0,1.15.37h4.19a1.48,1.48,0,0,0,1.15-.37h0.33l0.06,2.3h-0.31a1.39,1.39,0,0,0-1.46-1.44h-1.17v5.34Z" transform="translate(-83.59 -24.83)"/><path class="cls-1" d="M201.88,96.48a1,1,0,0,0-1.21-1.27V94.88h3.78v0.33c-0.8.08-1.23,0.16-1.23,1.27v1.83h4.33V96.48c0-1.11-.43-1.19-1.23-1.27V94.88h3.8v0.33c-0.8.08-1.23,0.16-1.23,1.27v4.23c0,1.13.43,1.21,1.23,1.29v0.33h-3.8V102c0.8-.08,1.23-0.16,1.23-1.29V98.85h-4.33v1.85c0,1.13.43,1.21,1.23,1.29v0.33h-3.78V102a1,1,0,0,0,1.21-1.29V96.48Z" transform="translate(-83.59 -24.83)"/><path class="cls-1" d="M221.35,97.22H221a3.16,3.16,0,0,0-.51-1.15,2.37,2.37,0,0,0-2-1c-1.93,0-2.81,1.81-2.81,3.45a3.1,3.1,0,0,0,3,3.43,3.26,3.26,0,0,0,2.63-1.4l0.25,0.19a3.47,3.47,0,0,1-3.35,1.79,3.91,3.91,0,0,1-4.05-3.82,4.12,4.12,0,0,1,4.09-4,9,9,0,0,1,1.79.23,3.43,3.43,0,0,0,.45.06,0.76,0.76,0,0,0,.43-0.2h0.31Z" transform="translate(-83.59 -24.83)"/><path class="cls-1" d="M226.32,100.82a1.44,1.44,0,0,0-.12.51,0.8,0.8,0,0,0,.8.66v0.33h-2.42V102c0.72-.16.92-0.31,1.39-1.6l2.1-5.65h1.06l2.08,5.71c0.43,1.17.61,1.46,1.54,1.54v0.33h-3.49V102c0.43,0,.88-0.1.88-0.51A1.48,1.48,0,0,0,230,101l-0.56-1.58h-2.59Zm2.94-1.95-1.11-3.08L227,98.87h2.26Z" transform="translate(-83.59 -24.83)"/><path class="cls-1" d="M236.84,96.48a1,1,0,0,0-1.21-1.27V94.88h3.7c0.58,0,3,0,3,2a2,2,0,0,1-1.71,1.85c0.78,0.37,1.13.84,2.18,2.28a1.91,1.91,0,0,0,1.75,1v0.33h-2.22a17.59,17.59,0,0,1-1.64-2.09C239.82,99,239.37,99,238.85,99H238.2v1.73a1,1,0,0,0,1.21,1.29v0.33h-3.78V102a1,1,0,0,0,1.21-1.29V96.48Zm1.37,2.12h1a1.56,1.56,0,0,0,1.77-1.71,1.46,1.46,0,0,0-1.58-1.68H238.2V98.6Z" transform="translate(-83.59 -24.83)"/><path class="cls-1" d="M250,100.75c0,1.25.16,1.25,0.94,1.25h1.15a1.63,1.63,0,0,0,1.72-1.11h0.35l-0.35,1.44h-6.35V102c0.9-.08,1.23-0.18,1.23-1.29V96.48c0-1.07-.33-1.19-1.23-1.27V94.88h6.24l0.12,1.41h-0.35a1.36,1.36,0,0,0-1.68-1.07H250v3.2h1.33a1,1,0,0,0,1.23-1h0.33v2.47h-0.33c0-.43-0.06-1-1.23-1H250v1.89Z" transform="translate(-83.59 -24.83)"/><path class="cls-2" d="M160.58,57c-4.43,5.86-11.8,6.71-15.31,6.38,6.31-5.76,12.05-6.42,15.31-6.38" transform="translate(-83.59 -24.83)"/><path class="cls-2" d="M169.52,45.78C178.7,37.06,187.86,40,194,35.36c-1.93,6.37-10,13.7-16.37,16.25,5.94,2.32,14.77,6.21,21.5,14-9.66-.69-12.77,1.58-26-6.43,0.9,8.33-4.37,16.93-6.31,21.5-0.58-3.7-6.16-10.19-2.49-25.61-5.88-.87-17.63-13-19.07-15.83,3.16,1.62,17.57-.55,24.25,6.54" transform="translate(-83.59 -24.83)"/><path class="cls-2" d="M159.27,62.82c-0.26,4.69-3.52,9.1-7.25,11.7a16.11,16.11,0,0,1,7.25-11.7" transform="translate(-83.59 -24.83)"/><path class="cls-2" d="M168.46,24.83C172,30.41,174.23,37.19,170,44c-0.67-2.53-5.47-9.8-1.5-19.14" transform="translate(-83.59 -24.83)"/><path class="cls-1" d="M256.18,95.72A1.24,1.24,0,1,1,257.43,97a1.24,1.24,0,0,1-1.25-1.28m1.25,1.54a1.53,1.53,0,1,0-1.56-1.54,1.53,1.53,0,0,0,1.56,1.54m-0.32-1.42h0.31l0.47,0.77h0.3l-0.5-.78a0.46,0.46,0,0,0,.46-0.49,0.5,0.5,0,0,0-.63-0.5h-0.67V96.6h0.27V95.84Zm0-.23V95.06h0.37c0.18,0,.38,0,0.38.26s-0.2.29-.43,0.29H257.1Z" transform="translate(-83.59 -24.83)"/></svg>