<svg id="Layer_1" data-name="Layer 1" xmlns="http://www.w3.org/2000/svg" xmlns:xlink="http://www.w3.org/1999/xlink" viewBox="0 0 84.78 105.4"><defs><style>.cls-1{fill:#fdbb30;}.cls-2{fill:url(#linear-gradient);}.cls-3{fill:url(#linear-gradient-2);}.cls-4{fill:url(#linear-gradient-3);}.cls-5{fill:url(#linear-gradient-4);}.cls-6{fill:url(#linear-gradient-5);}.cls-7{fill:url(#linear-gradient-6);}</style><linearGradient id="linear-gradient" x1="42.4" y1="111.7" x2="42.4" y2="54.61" gradientUnits="userSpaceOnUse"><stop offset="0.65" stop-color="#fdbb30" stop-opacity="0"/><stop offset="0.99" stop-color="#fdbb30" stop-opacity="0.3"/></linearGradient><linearGradient id="linear-gradient-2" x1="835.58" y1="2093.04" x2="835.58" y2="2035.94" xlink:href="#linear-gradient"/><linearGradient id="linear-gradient-3" x1="72.41" y1="111.7" x2="72.41" y2="54.61" xlink:href="#linear-gradient"/><linearGradient id="linear-gradient-4" x1="769.45" y1="2093.04" x2="769.45" y2="2035.94" xlink:href="#linear-gradient"/><linearGradient id="linear-gradient-5" x1="12.38" y1="111.7" x2="12.38" y2="54.61" xlink:href="#linear-gradient"/><linearGradient id="linear-gradient-6" x1="802.5" y1="2093.04" x2="802.5" y2="2035.94" xlink:href="#linear-gradient"/></defs><title>icon_3</title><circle class="cls-1" cx="42.4" cy="11.67" r="11.67"/><path class="cls-1" d="M822.54,2019.43c0.17-.15.73,0.55,1.25,1.56l2.24,5a1.59,1.59,0,0,1-1.62,2h-2.19a2.07,2.07,0,0,1-2.06-2.05s0-4.13,2.24-6.34Z" transform="translate(-760.13 -1981.34)"/><path class="cls-1" d="M844.91,2027.95H830.51L826.26,2017a0,0,0,0,1,0,0,28.63,28.63,0,0,1,6.27-1.41,15.34,15.34,0,0,1,10,3.82C844.89,2021.63,844.91,2027.95,844.91,2027.95Z" transform="translate(-760.13 -1981.34)"/><circle class="cls-1" cx="72.41" cy="25.14" r="5.95"/><path class="cls-1" d="M778.77,2017a0,0,0,0,1,0,0l-4.31,11H760.13s0-6.17,2.24-8.38a15.26,15.26,0,0,1,10.13-4A29,29,0,0,1,778.77,2017Z" transform="translate(-760.13 -1981.34)"/><path class="cls-1" d="M784.86,2025.9a2.05,2.05,0,0,1-2,2.05h-2.25a1.59,1.59,0,0,1-1.62-2l2.29-5a4,4,0,0,1,1.15-1.65l0.09,0.08C784.85,2021.63,784.86,2025.9,784.86,2025.9Z" transform="translate(-760.13 -1981.34)"/><circle class="cls-1" cx="12.38" cy="25.14" r="5.95"/><path class="cls-1" d="M826.77,2031.1a4,4,0,0,1-4,4H782.29a4.06,4.06,0,0,1-4.05-4,22,22,0,0,1,.27-3.14c0.4-2.58,1.35-6.23,3.69-8.8,0.14-.16.29-0.32,0.45-0.47a29.23,29.23,0,0,1,39.44-.33,8.18,8.18,0,0,1,.76.8,17.91,17.91,0,0,1,3.62,8.8A23.51,23.51,0,0,1,826.77,2031.1Z" transform="translate(-760.13 -1981.34)"/><circle class="cls-2" cx="42.4" cy="93.73" r="11.67"/><path class="cls-3" d="M844.91,2040.13H830.51l-4.25,10.94a0,0,0,0,0,0,0,28.63,28.63,0,0,0,6.27,1.41,15.34,15.34,0,0,0,10-3.82C844.89,2046.45,844.91,2040.13,844.91,2040.13Z" transform="translate(-760.13 -1981.34)"/><circle class="cls-4" cx="72.41" cy="80.26" r="5.95"/><path class="cls-5" d="M778.77,2051.09a0,0,0,0,0,0,0l-4.31-11H760.13s0,6.17,2.24,8.38a15.26,15.26,0,0,0,10.13,4A29,29,0,0,0,778.77,2051.09Z" transform="translate(-760.13 -1981.34)"/><circle class="cls-6" cx="12.38" cy="80.26" r="5.95"/><path class="cls-7" d="M826.77,2037a23.5,23.5,0,0,1-.3,3.14,17.91,17.91,0,0,1-3.62,8.8,8.18,8.18,0,0,1-.76.8,29.23,29.23,0,0,1-39.44-.33c-0.16-.15-0.31-0.31-0.45-0.47-2.34-2.57-3.29-6.22-3.69-8.8a22,22,0,0,1-.27-3.14,4.06,4.06,0,0,1,4.05-4h40.46A4,4,0,0,1,826.77,2037Z" transform="translate(-760.13 -1981.34)"/></svg>