<svg id="DESKTOP" xmlns="http://www.w3.org/2000/svg" viewBox="0 0 60.62 60.62"><defs><style>.cls-1{fill:#ed1b2e;}.cls-2{fill:#fff;}</style></defs><title>icon5</title><circle class="cls-1" cx="30.31" cy="30.31" r="30.31"/><path class="cls-2" d="M6503.07,3514.24l-0.18-.31,0.68-.39a4.11,4.11,0,0,0-1.88-1.59l-0.27.74-0.33-.12,0.27-.74a4.09,4.09,0,0,0-2.47,0l0.27,0.74-0.33.12-0.27-.74a4.1,4.1,0,0,0-1.88,1.59l0.68,0.39-0.18.31-0.68-.39a4.07,4.07,0,0,0-.46,1.88,4.12,4.12,0,0,0,0,.55l0.76-.13,0.06,0.35-0.76.13a4.08,4.08,0,0,0,1.24,2.12l0.49-.58,0.27,0.23-0.49.58a4.07,4.07,0,0,0,2.3.83V3519h0.36v0.76a4.07,4.07,0,0,0,2.3-.83l-0.49-.58,0.27-.23,0.49,0.58a4.08,4.08,0,0,0,1.24-2.12l-0.76-.13,0.06-.35,0.76,0.13a4.12,4.12,0,0,0,0-.55,4.07,4.07,0,0,0-.46-1.88Zm-3,4a2.5,2.5,0,1,1,2.5-2.5A2.5,2.5,0,0,1,6500.12,3518.22Zm11-5.35h1.78v-4.2h-1.78v4.2Zm-1,4.71h1.74v-3.7h-1.74v-6.22h1.74v-2h-19.69v20.18h19.69v-2h-1.74v-6.22Zm-10.07,3.55a5.4,5.4,0,1,1,5.4-5.4A5.4,5.4,0,0,1,6500.12,3521.13Zm11.76-20.37h-19.59a5.22,5.22,0,0,0-5.21,5.21v19.51a5.22,5.22,0,0,0,5.14,5.21v2.56h4.71v-2.56h10.31v2.56h4.71v-2.56a5.22,5.22,0,0,0,5.14-5.21V3506A5.22,5.22,0,0,0,6511.87,3500.76Zm2.86,24.72a2.86,2.86,0,0,1-2.86,2.86h-19.59a2.86,2.86,0,0,1-2.86-2.86V3506a2.86,2.86,0,0,1,2.86-2.86h19.59a2.86,2.86,0,0,1,2.86,2.86v19.51Zm-3.59-2.69h1.78v-4.2h-1.78v4.2Z" transform="translate(-6471.18 -3487.11)"/></svg>