<svg id="DESKTOP" xmlns="http://www.w3.org/2000/svg" viewBox="0 0 58.81 58.81"><defs><style>.cls-1{fill:#ed1b2e;}.cls-2{fill:#fff;}</style></defs><title>icon2</title><circle class="cls-1" cx="29.4" cy="29.4" r="29.4"/><path class="cls-2" d="M6506.57,3404.8H6495.7a6.3,6.3,0,0,0-6.3,6.3v17a6.3,6.3,0,0,0,6.3,6.3h10.87a6.3,6.3,0,0,0,6.3-6.3v-17A6.3,6.3,0,0,0,6506.57,3404.8Zm5.25,22h-21.37v-14.33h21.37v14.33Z" transform="translate(-6471.73 -3387.16)"/><path class="cls-2" d="M6508.19,3398.72h-14.12v5.2h14.12v-5.2Zm-2.55,4.82h-1v-4.37h1v4.37Zm1.78,0h-1v-4.37h1v4.37Z" transform="translate(-6471.73 -3387.16)"/></svg>