<svg id="DESKTOP" xmlns="http://www.w3.org/2000/svg" viewBox="0 0 60.44 60.44"><defs><style>.cls-1{fill:#ed1b2e;}.cls-2{fill:#fff;}</style></defs><title>icon17</title><circle class="cls-1" cx="30.22" cy="30.22" r="30.22"/><rect class="cls-2" x="17.79" y="45.78" width="4.96" height="3.28"/><rect class="cls-2" x="25.3" y="41.26" width="4.96" height="7.8"/><rect class="cls-2" x="32.8" y="33.35" width="4.96" height="15.71"/><rect class="cls-2" x="40.3" y="26.16" width="4.96" height="22.86"/><path class="cls-2" d="M6492,3909.3a1.45,1.45,0,0,0,.27-0.76c0-.32-0.94-1.8-0.28-3.11a2.46,2.46,0,0,1,3.14-1.15,3.47,3.47,0,0,1,1.88,1.61,0.39,0.39,0,0,1-.43.44,4.59,4.59,0,0,1-.44.88,7.9,7.9,0,0,0,0,1.37,0.89,0.89,0,0,1-.53,0,2.24,2.24,0,0,1-.48.73,0.69,0.69,0,0,1-.81.33c-0.32-.13-0.5.16-0.32,0.5a3.25,3.25,0,0,1,.65,1.32,24.73,24.73,0,0,0,.52,3.45c0.21,0.3,2.87,2.64,3.26,3.06,0,0-.26.41-0.23,0.44a10,10,0,0,1,1.12.72,1,1,0,0,1,.12.32c0,0.06.16,0.21,0.18,0.28s-0.1.13-.09,0.2a2.19,2.19,0,0,1-.06.83c-0.17.55-.69,0.87-0.76,0.31a2.18,2.18,0,0,0-.78-1.42,0.74,0.74,0,0,1-.34-0.4c0-.13-0.32.3-0.32,0.3l-2.29-1.93s0.31,0.93.4,1.16a1.16,1.16,0,0,0,.34.57c0.21,0.21,2.52,2.47,3.08,3.24a2.9,2.9,0,0,1,.24.68c0,1,.08,6.66.13,6.91s0.1,0.5-.07.53,0.22,0.3.54,0.47a9.75,9.75,0,0,0,1.2.59c0.22,0.05.58,0.12,0.88,0.17s0.27,0.65-.34.71h-4.8a0.75,0.75,0,0,1-.47-0.88,3.18,3.18,0,0,0,.28-0.72,1.14,1.14,0,0,0-.37,0s0-6.55-.19-6.89a14,14,0,0,0-1.72-1.61s-0.38,5.1-.74,5.69-2.39,4.2-3,5.45c-0.12.24-.47-0.13-0.48-0.06a1.75,1.75,0,0,0,.2,1,5.28,5.28,0,0,0,1,1.79c0.3,0.17.75,0.4,0.45,0.7a1.77,1.77,0,0,1-1.65-.12c-0.45-.38-2.52-2-3-2.25a1.06,1.06,0,0,1-.1-1.45,6.55,6.55,0,0,0,.72-0.93,0.47,0.47,0,0,1-.1-0.18,55.53,55.53,0,0,0,2.83-5.41c0.18-.59.74-5.55,0.72-5.72a9.82,9.82,0,0,0-1.11-.41c0-.13.47-1.84,0.53-2.3s-0.84,1.27-1,1.57-1.84-.85-1.84-0.85,1.58-3.29,1.94-4.48a29.26,29.26,0,0,1,1.63-4.38A2.36,2.36,0,0,1,6492,3909.3Z" transform="translate(-6471.22 -3892.41)"/><path class="cls-2" d="M6487.48,3919.47a0.83,0.83,0,0,0-.39.35,0.92,0.92,0,0,1-.08.13l-0.27-.16-0.45.81,2.28,1.28,0.43-.8-0.34-.19a1.64,1.64,0,0,0,0-.67,2,2,0,0,1,.24-0.73l-1.16-.49Z" transform="translate(-6471.22 -3892.41)"/><rect class="cls-2" x="6484.16" y="3919.27" width="4.76" height="7.45" rx="0.32" ry="0.32" transform="translate(-6537.94 3841.09) rotate(-61.34)"/></svg>