<svg id="Layer_1" data-name="Layer 1" xmlns="http://www.w3.org/2000/svg" xmlns:xlink="http://www.w3.org/1999/xlink" viewBox="0 0 50.1 105.08"><defs><style>.cls-1{fill:#fdbb30;}.cls-2{fill:url(#linear-gradient);}.cls-3{fill:url(#linear-gradient-2);}</style><linearGradient id="linear-gradient" x1="802.31" y1="2159.35" x2="802.31" y2="2190.9" gradientUnits="userSpaceOnUse"><stop offset="0.01" stop-color="#fdbb30" stop-opacity="0.3"/><stop offset="0.4" stop-color="#fdbb30" stop-opacity="0"/></linearGradient><linearGradient id="linear-gradient-2" x1="25.05" y1="53.64" x2="25.05" y2="85.19" xlink:href="#linear-gradient"/></defs><title>icon_7</title><path class="cls-1" d="M812.14,2135.24l-7.39,13.06L803,2136.88c0.2,0,2-.38,2-0.84v-1a0.84,0.84,0,0,0-.84-0.84h-3.65a0.84,0.84,0,0,0-.84.84v1c0,0.46,1.79.83,2,.84l-1.81,11.62-7.87-13c-4.09,1.86-9.25,4.45-12,8.42-3.11,4.44-2.63,9-2.63,14.36h50c0-5.29.51-9.81-2.54-14.23C821.87,2139.82,816.5,2137.1,812.14,2135.24Z" transform="translate(-777.26 -2105.71)"/><circle class="cls-1" cx="25.05" cy="11.67" r="11.67"/><path class="cls-2" d="M812.14,2181.26l-7.39-13.06L803,2179.62c0.2,0,2,.38,2,0.84v1a0.84,0.84,0,0,1-.84.84h-3.65a0.84,0.84,0,0,1-.84-0.84v-1c0-.46,1.79-0.83,2-0.84L799.82,2168,792,2181c-4.09-1.86-9.25-4.45-12-8.42-3.11-4.44-2.63-9-2.63-14.36h50c0,5.29.51,9.81-2.54,14.23C821.87,2176.68,816.5,2179.4,812.14,2181.26Z" transform="translate(-777.26 -2105.71)"/><circle class="cls-3" cx="25.05" cy="93.41" r="11.67"/></svg>