<svg id="Layer_1" data-name="Layer 1" xmlns="http://www.w3.org/2000/svg" viewBox="0 0 90.2 73.32"><defs><style>.cls-1{fill:#f2ae13;fill-rule:evenodd;}.cls-2{fill:#fff;}</style></defs><title>icon_ranking</title><path class="cls-1" d="M18.7,8.46a9.65,9.65,0,0,1,3.2-4,9.43,9.43,0,0,1,5.37-2,9.4,9.4,0,0,1-3.41,4.6,9.56,9.56,0,0,1-5,2q-0.81,1-1.56,2.12a9.81,9.81,0,0,1,4.26-1.54,9.32,9.32,0,0,1,5.6.94A9.35,9.35,0,0,1,22,12.86a9.5,9.5,0,0,1-5.27-.77,38.84,38.84,0,0,0-2,3.59,10,10,0,0,1,3.86-1.32,9.31,9.31,0,0,1,5.61.9A9.32,9.32,0,0,1,19,17.58,9.68,9.68,0,0,1,14,17a39.12,39.12,0,0,0-1.68,4.47,10,10,0,0,1,3.76-2.06,9.3,9.3,0,0,1,5.68,0,9.35,9.35,0,0,1-4.75,3.11,9.6,9.6,0,0,1-5.06.18,35.19,35.19,0,0,0-.9,4.38A9.8,9.8,0,0,1,15,24.82a9.29,9.29,0,0,1,5.68-.1A9.35,9.35,0,0,1,16,27.91a9.64,9.64,0,0,1-5,.28,29.44,29.44,0,0,0-.17,3.08c0,0.54,0,1.07,0,1.6a9.81,9.81,0,0,1,3.6-2.94A9.32,9.32,0,0,1,20,29a9.36,9.36,0,0,1-4.17,3.85,9.62,9.62,0,0,1-5,1A34.33,34.33,0,0,0,11.66,39a9.68,9.68,0,0,1,3.29-3.64,9.33,9.33,0,0,1,5.42-1.68,9.34,9.34,0,0,1-3.61,4.38,9.54,9.54,0,0,1-4.92,1.69,34.21,34.21,0,0,0,1.43,4.4,9.74,9.74,0,0,1,3-3.67,9.32,9.32,0,0,1,5.33-2,9.32,9.32,0,0,1-3.38,4.56A9.6,9.6,0,0,1,13.62,45a33.83,33.83,0,0,0,2.2,4.23,9.71,9.71,0,0,1,2.44-4.13,9.31,9.31,0,0,1,5-2.77,9.35,9.35,0,0,1-2.63,5A9.63,9.63,0,0,1,16.3,50a33.61,33.61,0,0,0,3.28,4.26,9.67,9.67,0,0,1,1.66-4.66,9.34,9.34,0,0,1,4.37-3.62,9.34,9.34,0,0,1-1.67,5.43,9.58,9.58,0,0,1-3.85,3.41,33.56,33.56,0,0,0,3.81,3.45,9.74,9.74,0,0,1,.81-4.69,9.31,9.31,0,0,1,3.65-4.35,9.35,9.35,0,0,1-.67,5.64,9.67,9.67,0,0,1-3.06,4,33.22,33.22,0,0,0,4.85,2.95A9.74,9.74,0,0,1,28.81,57a9.31,9.31,0,0,1,2.14-5.26A9.37,9.37,0,0,1,32,57.33a9.63,9.63,0,0,1-1.76,4.79q1,0.46,2,.85c0.54,0.21,1.34.5,2.3,0.84a9.72,9.72,0,0,1-1.26-4.59,9.31,9.31,0,0,1,1.45-5.49,9.33,9.33,0,0,1,1.8,5.38,9.58,9.58,0,0,1-1.14,5c5.46,2,14.86,5.32,16.63,7.27l-1,1.94C47.62,70.88,39.67,67.89,34.67,66a10.26,10.26,0,0,1-3.49,4.08A10,10,0,0,1,25.43,72a9.94,9.94,0,0,1,3.75-4.76,10.54,10.54,0,0,1,4.09-1.77l-1.75-.69q-1.31-.54-2.56-1.17A10.17,10.17,0,0,1,24.55,67a10,10,0,0,1-6,.65,10,10,0,0,1,4.68-3.85,10.48,10.48,0,0,1,4.6-.85,35.54,35.54,0,0,1-4.27-2.79,10.16,10.16,0,0,1-5.19,2.22,10,10,0,0,1-6-.92A10,10,0,0,1,17.88,59a10.51,10.51,0,0,1,4.52.32,36.3,36.3,0,0,1-3.61-3.43,10.14,10.14,0,0,1-5.56,1.31,10,10,0,0,1-5.74-2,9.92,9.92,0,0,1,5.87-1.5A10.47,10.47,0,0,1,18,54.93a36,36,0,0,1-3.23-4.41,10.18,10.18,0,0,1-5.51,1.07,10,10,0,0,1-5.67-2.14,9.94,9.94,0,0,1,5.92-1.32,10.42,10.42,0,0,1,4.69,1.44A35.49,35.49,0,0,1,12,45.27a10.18,10.18,0,0,1-5.56.57A10,10,0,0,1,1,43.2a10,10,0,0,1,6-.79,10.36,10.36,0,0,1,4.64,1.92,34.67,34.67,0,0,1-1.29-4.18,10.19,10.19,0,0,1-5.53-.71A10,10,0,0,1,.14,35.63a9.94,9.94,0,0,1,6,.61,10.42,10.42,0,0,1,4,2.79,34.56,34.56,0,0,1-.66-5.13A10.21,10.21,0,0,1,4.1,32.39,10,10,0,0,1,0,27.92,10,10,0,0,1,5.88,29.4a10.38,10.38,0,0,1,3.55,3.41c0-.25,0-0.49,0-0.74a31.86,31.86,0,0,1,.26-4A10.21,10.21,0,0,1,5,25.22a10,10,0,0,1-2.77-5.39,10,10,0,0,1,5.28,3,10.48,10.48,0,0,1,2.41,3.9,37.44,37.44,0,0,1,.94-4.17,10,10,0,0,1-4-4.33,10,10,0,0,1-1-6,10,10,0,0,1,4.15,4.42,10.32,10.32,0,0,1,1.14,5,37.87,37.87,0,0,1,2-5.05,10.05,10.05,0,0,1-2.82-5.12,10,10,0,0,1,.39-6,9.94,9.94,0,0,1,3,5.27,10.48,10.48,0,0,1,0,4.69,31.76,31.76,0,0,1,2.44-3.92A10,10,0,0,1,14.4,5.83,10,10,0,0,1,16.07,0a9.93,9.93,0,0,1,1.8,5.79,10.41,10.41,0,0,1-1,4.73A24.44,24.44,0,0,1,18.7,8.46h0Z"/><path class="cls-1" d="M71.5,8.46a9.66,9.66,0,0,0-3.19-4,9.44,9.44,0,0,0-5.37-2,9.39,9.39,0,0,0,3.41,4.6,9.55,9.55,0,0,0,5,2q0.81,1,1.56,2.12a9.81,9.81,0,0,0-4.26-1.54,9.32,9.32,0,0,0-5.6.94,9.35,9.35,0,0,0,5.2,2.28,9.5,9.5,0,0,0,5.27-.77,38.78,38.78,0,0,1,2,3.59,10,10,0,0,0-3.86-1.32,9.3,9.3,0,0,0-5.61.9,9.32,9.32,0,0,0,5.18,2.33A9.68,9.68,0,0,0,76.16,17a39.24,39.24,0,0,1,1.69,4.47,10,10,0,0,0-3.76-2.06,9.3,9.3,0,0,0-5.68,0,9.35,9.35,0,0,0,4.75,3.11,9.6,9.6,0,0,0,5.06.18,35,35,0,0,1,.9,4.38,9.81,9.81,0,0,0-3.91-2.3,9.29,9.29,0,0,0-5.68-.1,9.35,9.35,0,0,0,4.69,3.2,9.64,9.64,0,0,0,5,.28,29.45,29.45,0,0,1,.17,3.08c0,0.54,0,1.07,0,1.6a9.81,9.81,0,0,0-3.6-2.94,9.32,9.32,0,0,0-5.6-.93,9.36,9.36,0,0,0,4.17,3.85,9.62,9.62,0,0,0,5,1A34.53,34.53,0,0,1,78.54,39a9.67,9.67,0,0,0-3.29-3.64,9.33,9.33,0,0,0-5.42-1.68,9.33,9.33,0,0,0,3.61,4.38,9.54,9.54,0,0,0,4.92,1.69,33.9,33.9,0,0,1-1.43,4.4,9.71,9.71,0,0,0-3-3.67,9.32,9.32,0,0,0-5.33-2A9.32,9.32,0,0,0,72,43.07,9.6,9.6,0,0,0,76.58,45a33.92,33.92,0,0,1-2.2,4.23,9.72,9.72,0,0,0-2.44-4.13,9.31,9.31,0,0,0-5-2.77,9.35,9.35,0,0,0,2.63,5A9.63,9.63,0,0,0,73.91,50a33.65,33.65,0,0,1-3.28,4.26A9.67,9.67,0,0,0,69,49.57a9.34,9.34,0,0,0-4.37-3.62,9.34,9.34,0,0,0,1.67,5.43,9.6,9.6,0,0,0,3.85,3.41,33.41,33.41,0,0,1-3.81,3.45,9.75,9.75,0,0,0-.81-4.69,9.32,9.32,0,0,0-3.65-4.35,9.35,9.35,0,0,0,.67,5.64,9.67,9.67,0,0,0,3.06,4,33.17,33.17,0,0,1-4.85,2.95A9.75,9.75,0,0,0,61.39,57a9.32,9.32,0,0,0-2.14-5.26,9.37,9.37,0,0,0-1.1,5.57,9.63,9.63,0,0,0,1.76,4.79q-1,.46-2,0.85c-0.54.21-1.34,0.5-2.3,0.84a9.74,9.74,0,0,0,1.26-4.59,9.3,9.3,0,0,0-1.45-5.49,9.34,9.34,0,0,0-1.8,5.38,9.59,9.59,0,0,0,1.14,5c-5.46,2-14.86,5.32-16.63,7.27l1,1.94c3.47-2.44,11.42-5.43,16.42-7.33A10.27,10.27,0,0,0,59,70.08,10,10,0,0,0,64.77,72,9.94,9.94,0,0,0,61,67.24a10.54,10.54,0,0,0-4.09-1.77l1.75-.69q1.31-.54,2.56-1.17A10.17,10.17,0,0,0,65.65,67a10,10,0,0,0,6,.65A10,10,0,0,0,67,63.85a10.48,10.48,0,0,0-4.6-.85,35.53,35.53,0,0,0,4.27-2.79,10.16,10.16,0,0,0,5.19,2.22,10,10,0,0,0,6-.92A10,10,0,0,0,72.32,59a10.5,10.5,0,0,0-4.52.32,36.35,36.35,0,0,0,3.61-3.43A10.14,10.14,0,0,0,77,57.18a10,10,0,0,0,5.74-2,9.93,9.93,0,0,0-5.87-1.5,10.47,10.47,0,0,0-4.59,1.21,35.94,35.94,0,0,0,3.23-4.41A10.18,10.18,0,0,0,81,51.59a10,10,0,0,0,5.67-2.14,9.94,9.94,0,0,0-5.92-1.32A10.42,10.42,0,0,0,76,49.58a35.53,35.53,0,0,0,2.12-4.31,10.18,10.18,0,0,0,5.56.57,10,10,0,0,0,5.46-2.64,10,10,0,0,0-6-.79,10.36,10.36,0,0,0-4.64,1.92,34.78,34.78,0,0,0,1.29-4.18,10.19,10.19,0,0,0,5.53-.71,10,10,0,0,0,4.71-3.82,9.94,9.94,0,0,0-6,.61,10.41,10.41,0,0,0-4,2.79,34.54,34.54,0,0,0,.66-5.13,10.2,10.2,0,0,0,5.37-1.51,10,10,0,0,0,4.1-4.46,10,10,0,0,0-5.88,1.48,10.38,10.38,0,0,0-3.54,3.41c0-.25,0-0.49,0-0.74a32.14,32.14,0,0,0-.26-4,10.22,10.22,0,0,0,4.72-2.87A10,10,0,0,0,88,19.83a10,10,0,0,0-5.28,3,10.49,10.49,0,0,0-2.41,3.9,37.32,37.32,0,0,0-.94-4.17,10,10,0,0,0,4-4.33,10,10,0,0,0,1-6,10,10,0,0,0-4.15,4.42,10.32,10.32,0,0,0-1.14,5,37.9,37.9,0,0,0-2-5.05A10.05,10.05,0,0,0,80,11.49a10,10,0,0,0-.39-6,10,10,0,0,0-3,5.27,10.48,10.48,0,0,0,0,4.69,31.76,31.76,0,0,0-2.44-3.92A10,10,0,0,0,75.8,5.83,10,10,0,0,0,74.13,0a9.94,9.94,0,0,0-1.8,5.79,10.42,10.42,0,0,0,1,4.73A24.35,24.35,0,0,0,71.5,8.46h0Z"/><path class="cls-2" d="M32,40.11l0.75-5H30.41V32h2.9l0.44-2.84H31.31V26.09h2.9l0.73-4.85h3l-0.75,4.85h2.52l0.73-4.85h3l-0.73,4.85h2.29V29.2H42.14L41.7,32h2.35v3.11H41.18l-0.73,5h-3l0.75-5h-2.5l-0.73,5H32ZM38.74,32l0.44-2.84h-2.5L36.28,32h2.47Z"/><path class="cls-2" d="M51.08,25.86H51l-3.71,1.68-0.84-3.92,5.4-2.38h4.27V40.11h-5V25.86Z"/></svg>