<svg id="DESKTOP" xmlns="http://www.w3.org/2000/svg" viewBox="0 0 59.71 59.71"><defs><style>.cls-1{fill:#ed1b2e;}.cls-2{fill:#fff;}</style></defs><title>icon8</title><circle class="cls-1" cx="29.85" cy="29.85" r="29.85"/><path class="cls-2" d="M6507.83,3629.41a9.86,9.86,0,0,1-5.22,1.81v4.21h-3.34v-4.24a11.12,11.12,0,0,1-4.4-1.36,11.68,11.68,0,0,1-3.43-3.17l3.62-3.1a8.25,8.25,0,0,0,1.75,2.12,6.2,6.2,0,0,0,2.46,1.22V3620a22.11,22.11,0,0,1-5.22-2.71,5.77,5.77,0,0,1-2.23-4.87,6,6,0,0,1,.64-2.8,6.85,6.85,0,0,1,1.69-2.1,8.92,8.92,0,0,1,2.38-1.41,11,11,0,0,1,2.73-.71v-2.54h3.34v2.51a12.86,12.86,0,0,1,2.19.42,8.72,8.72,0,0,1,1.77.75,10.34,10.34,0,0,1,1.62,1.13q0.78,0.66,1.72,1.53l-3.27,3.2q-0.87-.83-1.85-1.63a5.24,5.24,0,0,0-2.19-1.08v6.23a21.91,21.91,0,0,1,5.08,2.61,6,6,0,0,1,2.61,5.22A6.79,6.79,0,0,1,6507.83,3629.41Zm-3.62-7.2a14.44,14.44,0,0,0-1.6-.87V3627a7.57,7.57,0,0,0,1.11-.3,3.24,3.24,0,0,0,1-.52,2.66,2.66,0,0,0,.68-0.8A2.32,2.32,0,0,0,6504.21,3622.21Zm-6.79-11.88a2.7,2.7,0,0,0-.64.71,1.78,1.78,0,0,0-.26,1,1.64,1.64,0,0,0,.28.94,3,3,0,0,0,.68.73,5.08,5.08,0,0,0,.89.56c0.32,0.16.62,0.3,0.9,0.42v-5a9.58,9.58,0,0,0-1,.26A2.8,2.8,0,0,0,6497.42,3610.32Z" transform="translate(-6471.01 -3588.22)"/></svg>