<svg id="DESKTOP" xmlns="http://www.w3.org/2000/svg" viewBox="0 0 59.66 59.66"><defs><style>.cls-1{fill:#ed1b2e;}.cls-2{fill:#fff;}</style></defs><title>icon7</title><circle class="cls-1" cx="29.83" cy="29.83" r="29.83"/><path class="cls-2" d="M6181.95,3633.16l-0.33-.13a33.3,33.3,0,0,1-13.08-9,19.63,19.63,0,0,1-4.84-10.56,11.4,11.4,0,0,1,.69-5.34,8.16,8.16,0,0,1,3.15-3.84c3.47-2.21,8.45-1.74,14.1,1.31,7.67-4.17,12.25-2.62,14.33-1.29a8.42,8.42,0,0,1,3.24,3.94,11.58,11.58,0,0,1,.72,5.47,19.41,19.41,0,0,1-4.76,10.45,32.82,32.82,0,0,1-12.9,8.87Z" transform="translate(-6151.99 -3588.19)"/></svg>