<svg id="DESKTOP" xmlns="http://www.w3.org/2000/svg" viewBox="0 0 60.07 60.08"><defs><style>.cls-1{fill:#ed1b2e;}.cls-2{fill:#fff;}</style></defs><title>icon9</title><circle class="cls-1" cx="30.04" cy="30.04" r="30.04"/><path class="cls-2" d="M6805.78,3633h32.33v-2h-32.33v2Zm32.07-19.81,0.4-1.7-16.31-11.85-16.31,11.85,0.4,1.7h31.81Zm-15.9-9.72a3.86,3.86,0,1,1-3.86,3.86A3.86,3.86,0,0,1,6821.95,3603.47Zm-0.7,5.06a1.42,1.42,0,0,1-.3-0.36l-0.62.53a2,2,0,0,0,.59.54,1.91,1.91,0,0,0,.75.23v0.73h0.57v-0.72a1.69,1.69,0,0,0,.9-0.31,1.16,1.16,0,0,0,.42-1,1,1,0,0,0-.45-0.9,3.77,3.77,0,0,0-.87-0.45v-1.07a0.9,0.9,0,0,1,.38.19l0.32,0.28,0.56-.55-0.3-.26a1.79,1.79,0,0,0-.28-0.19,1.49,1.49,0,0,0-.3-0.13,2.26,2.26,0,0,0-.38-0.07v-0.43h-0.57v0.44a1.88,1.88,0,0,0-.47.12,1.52,1.52,0,0,0-.41.24,1.18,1.18,0,0,0-.29.36,1,1,0,0,0-.11.48,1,1,0,0,0,.38.84,3.79,3.79,0,0,0,.89.47v1.18A1.07,1.07,0,0,1,6821.25,3608.53Zm1-.75,0.28,0.15a0.4,0.4,0,0,1,.2.55,0.46,0.46,0,0,1-.12.14,0.56,0.56,0,0,1-.17.09l-0.19.05v-1Zm-0.73-1.22-0.15-.1a0.53,0.53,0,0,1-.12-0.13,0.28,0.28,0,0,1,0-.16,0.31,0.31,0,0,1,0-.17,0.46,0.46,0,0,1,.11-0.12,0.47,0.47,0,0,1,.15-0.08l0.17,0v0.87Zm-12.53,8.05v13h-1.45v2h28.82v-2h-1.45v-13h-4.08v13h-3.2v-13h-4.08v13h-3.2v-13h-4.08v13h-3.2v-13H6809Z" transform="translate(-6791.91 -3587.98)"/></svg>