<svg id="Layer_1" data-name="Layer 1" xmlns="http://www.w3.org/2000/svg" xmlns:xlink="http://www.w3.org/1999/xlink" viewBox="0 0 35.91 106"><defs><style>.cls-1,.cls-2{fill:#fdbb30;stroke:#fdbb30;stroke-linejoin:round;}.cls-1{stroke-width:0.5px;}.cls-2{stroke-width:0.59px;}.cls-3{fill:url(#linear-gradient);}.cls-4{fill:url(#linear-gradient-2);}.cls-5{fill:url(#linear-gradient-3);}.cls-6{fill:url(#linear-gradient-4);}</style><linearGradient id="linear-gradient" x1="501.4" y1="2163.07" x2="501.4" y2="2199.13" gradientUnits="userSpaceOnUse"><stop offset="0.01" stop-color="#fdbb30" stop-opacity="0.3"/><stop offset="0.4" stop-color="#fdbb30" stop-opacity="0"/></linearGradient><linearGradient id="linear-gradient-2" x1="501.96" y1="2163.07" x2="501.96" y2="2199.13" xlink:href="#linear-gradient"/><linearGradient id="linear-gradient-3" x1="482.4" y1="2163.07" x2="482.4" y2="2199.13" xlink:href="#linear-gradient"/><linearGradient id="linear-gradient-4" x1="482.06" y1="2163.07" x2="482.06" y2="2199.13" xlink:href="#linear-gradient"/></defs><title>icon_6</title><path class="cls-1" d="M496.66,2144l10.06,1.64s-0.82,12.51-6.77,9.88S496.66,2144,496.66,2144Z" transform="translate(-474.06 -2103.17)"/><path class="cls-2" d="M494.26,2127.87c0.2-5.17,4.21-9.64,9.09-8.85,4.19,0.68,7,5.08,6.19,9.83l-0.24,1.48-1.83,11.26-11.06-1.8c-0.25,0-.74-3.26-0.8-3.54-0.45-2.13-.92-4.29-1.24-6.46A10.4,10.4,0,0,1,494.26,2127.87Z" transform="translate(-474.06 -2103.17)"/><path class="cls-1" d="M487.16,2128.56l-10.08,1.52s0.67,12.52,6.65,10S487.16,2128.56,487.16,2128.56Z" transform="translate(-474.06 -2103.17)"/><path class="cls-2" d="M489.75,2112.5c-0.14-5.17-4.1-9.69-9-9-4.2.63-7,5-6.31,9.75l0.22,1.49,1.7,11.28,11.08-1.67c0.25,0,.77-3.25.84-3.53,0.48-2.13,1-4.28,1.32-6.44A10.4,10.4,0,0,0,489.75,2112.5Z" transform="translate(-474.06 -2103.17)"/><path class="cls-3" d="M496.66,2168.69l10.06-1.64s-0.82-12.51-6.77-9.88S496.66,2168.69,496.66,2168.69Z" transform="translate(-474.06 -2103.17)"/><path class="cls-4" d="M494.26,2184.78c0.2,5.17,4.21,9.64,9.09,8.85,4.19-.68,7-5.08,6.19-9.83l-0.24-1.48L507.47,2171l-11.06,1.8c-0.25,0-.74,3.26-0.8,3.54-0.45,2.13-.92,4.29-1.24,6.46A10.4,10.4,0,0,0,494.26,2184.78Z" transform="translate(-474.06 -2103.17)"/><path class="cls-5" d="M487.16,2184.08l-10.08-1.52s0.67-12.52,6.65-10S487.16,2184.08,487.16,2184.08Z" transform="translate(-474.06 -2103.17)"/><path class="cls-6" d="M489.75,2200.14c-0.14,5.17-4.1,9.69-9,9-4.2-.63-7-5-6.31-9.75l0.22-1.49,1.7-11.28,11.08,1.67c0.25,0,.77,3.25.84,3.53,0.48,2.13,1,4.28,1.32,6.44A10.4,10.4,0,0,1,489.75,2200.14Z" transform="translate(-474.06 -2103.17)"/></svg>