<svg id="Layer_1" data-name="Layer 1" xmlns="http://www.w3.org/2000/svg" xmlns:xlink="http://www.w3.org/1999/xlink" viewBox="0 0 52.87 106.27"><defs><style>.cls-1{fill:#fdbb30;}.cls-2{fill:url(#linear-gradient);}.cls-3{fill:url(#linear-gradient-2);}.cls-4{fill:url(#linear-gradient-3);}</style><linearGradient id="linear-gradient" x1="7" y1="57.48" x2="7" y2="88.66" gradientUnits="userSpaceOnUse"><stop offset="0.01" stop-color="#fdbb30" stop-opacity="0.3"/><stop offset="0.4" stop-color="#fdbb30" stop-opacity="0"/></linearGradient><linearGradient id="linear-gradient-2" x1="24.63" y1="57.48" x2="24.63" y2="88.66" xlink:href="#linear-gradient"/><linearGradient id="linear-gradient-3" x1="1122.54" y1="2038.6" x2="1122.54" y2="2069.78" xlink:href="#linear-gradient"/></defs><title>icon_4</title><rect class="cls-1" y="22.62" width="14.01" height="30.49" rx="3.87" ry="3.87"/><rect class="cls-1" x="17.63" y="17.67" width="14.01" height="35.44" rx="3.87" ry="3.87"/><path class="cls-1" d="M1133.42,1993.88l-10.62-12.65a0.35,0.35,0,0,0-.51,0l-10.62,12.65a0.34,0.34,0,0,0,.26.55h3.78v35.93a3.88,3.88,0,0,0,3.87,3.87h6.26a3.88,3.88,0,0,0,3.87-3.87v-35.93h3.45A0.34,0.34,0,0,0,1133.42,1993.88Z" transform="translate(-1080.63 -1981.12)"/><rect class="cls-2" y="53.16" width="14.01" height="30.49" rx="3.87" ry="3.87"/><rect class="cls-3" x="17.63" y="53.16" width="14.01" height="35.44" rx="3.87" ry="3.87"/><path class="cls-4" d="M1133.42,2074.63l-10.62,12.65a0.35,0.35,0,0,1-.51,0l-10.62-12.65a0.34,0.34,0,0,1,.26-0.55h3.78v-35.93a3.88,3.88,0,0,1,3.87-3.87h6.26a3.88,3.88,0,0,1,3.87,3.87v35.93h3.45A0.34,0.34,0,0,1,1133.42,2074.63Z" transform="translate(-1080.63 -1981.12)"/></svg>