<svg id="Layer_1" data-name="Layer 1" xmlns="http://www.w3.org/2000/svg" xmlns:xlink="http://www.w3.org/1999/xlink" viewBox="0 0 54.07 106.9"><defs><style>.cls-1{fill:#fdbb30;}.cls-2{fill:none;stroke:#fdbb30;stroke-miterlimit:10;}.cls-3{fill:url(#linear-gradient);}</style><linearGradient id="linear-gradient" x1="1106.45" y1="2170.16" x2="1106.45" y2="2199.87" gradientUnits="userSpaceOnUse"><stop offset="0.01" stop-color="#fdbb30" stop-opacity="0.3"/><stop offset="0.4" stop-color="#fdbb30" stop-opacity="0"/></linearGradient></defs><title>icon_8</title><path class="cls-1" d="M1129.35,2128.45a4,4,0,0,0-3.89,3.48l-7.93-.07a11,11,0,0,0-2.82-7l5.66-5.56a4,4,0,1,0-.73-0.73l-5.65,5.56a11.06,11.06,0,0,0-6.93-2.94l0.07-7.94a4,4,0,1,0-1,0l-0.07,7.93a11,11,0,0,0-7,2.82l-5.56-5.66a4,4,0,1,0-.73.73l5.56,5.65a11.06,11.06,0,0,0-2.94,6.93l-7.94-.07a4,4,0,1,0,0,1l7.93,0.07a11,11,0,0,0,2.82,7l-5.66,5.56a4,4,0,1,0,.73.73l5.65-5.56a11.06,11.06,0,0,0,6.93,2.94l-0.07,7.94a4,4,0,1,0,1,0l0.07-7.93a11.05,11.05,0,0,0,7-2.82l5.56,5.66a4,4,0,1,0,.73-0.73l-5.56-5.65a11.06,11.06,0,0,0,2.94-6.93l7.94,0.07A4,4,0,1,0,1129.35,2128.45Z" transform="translate(-1079.41 -2105.25)"/><circle class="cls-2" cx="27.04" cy="27.04" r="22.82"/><path class="cls-3" d="M1133.49,2185a4,4,0,0,0-3.94-4.13h-0.17a23.19,23.19,0,0,0-4-9.32,4,4,0,0,0-5.62-5.78l-0.12.13a23.18,23.18,0,0,0-9.39-3.81,4,4,0,0,0-8.06-.1c0,0.06,0,.11,0,0.17a23.19,23.19,0,0,0-9.32,4,4,4,0,0,0-5.78,5.62l0.13,0.12a23.18,23.18,0,0,0-3.81,9.39,4,4,0,0,0-.1,8.06h0.17a23.19,23.19,0,0,0,4,9.32,4,4,0,0,0,5.62,5.78l0.12-.13a23.18,23.18,0,0,0,9.39,3.81,4,4,0,0,0,8.06.1c0-.06,0-0.11,0-0.17a23.19,23.19,0,0,0,9.32-4,4,4,0,0,0,5.78-5.62l-0.13-.12a23.18,23.18,0,0,0,3.81-9.39A4,4,0,0,0,1133.49,2185Zm-8.86-12.84a22.2,22.2,0,0,1,3.77,8.86,4,4,0,0,0-2.93,3.39l-7.94.07a11.06,11.06,0,0,0-2.94-6.93l5.56-5.65A4,4,0,0,0,1124.62,2172.18Zm-5.21-1-5.56,5.66a11,11,0,0,0-7-2.82l-0.07-7.93a4,4,0,0,0,3.35-3,22.19,22.19,0,0,1,8.93,3.62A4,4,0,0,0,1119.42,2171.19Zm-13.64-5.09,0.07,7.94a11.06,11.06,0,0,0-6.93,2.94l-5.65-5.56a4,4,0,0,0,.26-4.47,22.2,22.2,0,0,1,8.86-3.77A4,4,0,0,0,1105.77,2166.1Zm-13.25,6,5.66,5.56a11,11,0,0,0-2.82,7l-7.93.07a4,4,0,0,0-3-3.35,22.19,22.19,0,0,1,3.62-8.93A4,4,0,0,0,1092.53,2172.15Zm-5.09,13.64,7.94-.07a11.06,11.06,0,0,0,2.94,6.93l-5.56,5.65a4,4,0,0,0-4.47-.26,22.2,22.2,0,0,1-3.77-8.86A4,4,0,0,0,1087.44,2185.79Zm6,13.25,5.56-5.66a11,11,0,0,0,7,2.82l0.07,7.93a4,4,0,0,0-3.35,3,22.19,22.19,0,0,1-8.93-3.62A4,4,0,0,0,1093.48,2199Zm13.64,5.09-0.07-7.94a11.06,11.06,0,0,0,6.93-2.94l5.65,5.56a4,4,0,0,0-.26,4.47,22.2,22.2,0,0,1-8.86,3.77A4,4,0,0,0,1107.13,2204.13Zm13.25-6-5.66-5.56a11,11,0,0,0,2.82-7l7.93-.07a4,4,0,0,0,3,3.35,22.19,22.19,0,0,1-3.62,8.93A4,4,0,0,0,1120.37,2198.08Z" transform="translate(-1079.41 -2105.25)"/></svg>