<svg id="Layer_1" data-name="Layer 1" xmlns="http://www.w3.org/2000/svg" xmlns:xlink="http://www.w3.org/1999/xlink" viewBox="0 0 69.09 105.57"><defs><style>.cls-1{fill:#fdbb30;}.cls-2{fill:url(#linear-gradient);}.cls-3{fill:url(#linear-gradient-2);}.cls-4{fill:url(#linear-gradient-3);}</style><linearGradient id="linear-gradient" x1="494.18" y1="2091.02" x2="494.18" y2="2037.35" gradientUnits="userSpaceOnUse"><stop offset="0.65" stop-color="#fdbb30" stop-opacity="0"/><stop offset="0.99" stop-color="#fdbb30" stop-opacity="0.3"/></linearGradient><linearGradient id="linear-gradient-2" x1="9.65" y1="108.82" x2="9.65" y2="55.15" xlink:href="#linear-gradient"/><linearGradient id="linear-gradient-3" x1="463.8" y1="2091.02" x2="463.8" y2="2037.35" xlink:href="#linear-gradient"/></defs><title>icon_2</title><path class="cls-1" d="M516.52,1986H500v-3.83H488.36V1986H471.85a2.5,2.5,0,0,0-2.5,2.5v10.86h5V1991H514v27H474.35v-9.42h-5v11.92a2.5,2.5,0,0,0,2.5,2.5H490l-7,7a3,3,0,1,0,4.24,4.24l7-7,7,7a3,3,0,0,0,4.24-4.24l-7-7h18.18a2.5,2.5,0,0,0,2.5-2.5v-32A2.5,2.5,0,0,0,516.52,1986Z" transform="translate(-449.92 -1982.21)"/><circle class="cls-1" cx="9.65" cy="12.6" r="4.6"/><path class="cls-1" d="M475.17,2001.65H452.42a2.5,2.5,0,0,0-2.5,2.5v14.32a2.5,2.5,0,0,0,4.57,1.4v12.93a3,3,0,0,0,5.47,1.7,3,3,0,0,0,5.47-1.7v-26.15h9.75A2.5,2.5,0,0,0,475.17,2001.65Z" transform="translate(-449.92 -1982.21)"/><path class="cls-2" d="M516.52,2083.94H500v3.83H488.36v-3.83H471.85a2.5,2.5,0,0,1-2.5-2.5v-10.86h5v8.36H514v-27H474.35v9.42h-5v-11.92a2.5,2.5,0,0,1,2.5-2.5H490l-7-7a3,3,0,1,1,4.24-4.24l7,7,7-7a3,3,0,1,1,4.24,4.24l-7,7h18.18a2.5,2.5,0,0,1,2.5,2.5v32A2.5,2.5,0,0,1,516.52,2083.94Z" transform="translate(-449.92 -1982.21)"/><circle class="cls-3" cx="9.65" cy="92.97" r="4.6"/><path class="cls-4" d="M475.17,2068.33H452.42a2.5,2.5,0,0,1-2.5-2.5v-14.32a2.5,2.5,0,0,1,4.57-1.4v-12.93a3,3,0,0,1,5.47-1.7,3,3,0,0,1,5.47,1.7v26.15h9.75A2.5,2.5,0,0,1,475.17,2068.33Z" transform="translate(-449.92 -1982.21)"/></svg>