<svg id="DESKTOP" xmlns="http://www.w3.org/2000/svg" viewBox="0 0 60.48 60.48"><defs><style>.cls-1{fill:#ed1b2e;}.cls-2{fill:#fff;}</style></defs><title>icon11</title><circle class="cls-1" cx="30.24" cy="30.24" r="30.24"/><path class="cls-2" d="M6514.23,3712.83c0.91-2,5.67-1.09,5.67-1.09-6.42-5.08-8.39.38-8.39,0.38-1.59-4.32-5-1.11-5-1.11a2.67,2.67,0,0,1,3.6,1.07c-6.76-2.71-6.27,2.91-6.27,2.91,0.81-3.48,5.27-1.71,5.27-1.71-5.21,1-3.86,6.62-3.86,6.62,1.13-3.34,2.87-4.17,4.18-4.25a55.54,55.54,0,0,0-5.36,9.27,44.59,44.59,0,0,0-8.81-11.76c1.65-.36,4.43-0.06,6.63,4.67,0,0,.92-7.22-5.79-7.81,0,0,5.37-2.85,6.88,1.43,0,0,.25-7-7.89-2.6,0,0,1.07-2.81,3.84-2.06,0,0-5.35-3-5.94,2.48,0,0-3.36-7-10.74.34,0,0,5.88-1.85,7.3.59,0,0-8.88-.82-8.23,10.49a10.82,10.82,0,0,1,9.49-8.14s-6.88,5.71,2.27,12.09c0,0-2.57-8.37.69-10.86a33.08,33.08,0,0,1,7.65,15.63c-2.82.57-5.57,1.88-6.28,3.51h17.42c-0.67-1.54-4-2.79-6.57-3.4a41.78,41.78,0,0,1,5.34-13.45c2.69,1.73,1.43,8.41,1.43,8.41,6.62-5.79.73-9.67,0.73-9.67,4.48-.95,5.41,4.28,5.41,4.28C6520.5,3711.15,6514.23,3712.83,6514.23,3712.83Z" transform="translate(-6471.18 -3689.32)"/></svg>