<svg id="Layer_1" data-name="Layer 1" xmlns="http://www.w3.org/2000/svg" xmlns:xlink="http://www.w3.org/1999/xlink" viewBox="0 0 40.9 105.82"><defs><style>.cls-1{fill:#fdbb30;}.cls-2{fill:url(#linear-gradient);}</style><linearGradient id="linear-gradient" x1="183.61" y1="2161.75" x2="183.61" y2="2197.76" gradientUnits="userSpaceOnUse"><stop offset="0.01" stop-color="#fdbb30" stop-opacity="0.3"/><stop offset="0.4" stop-color="#fdbb30" stop-opacity="0"/></linearGradient></defs><title>icon_5</title><path class="cls-1" d="M183.61,2103.93a20.47,20.47,0,0,0-20.45,20.45,20.24,20.24,0,0,0,4.38,12.65l15.62,19.37a0.59,0.59,0,0,0,.91,0l15.87-19.7A20.46,20.46,0,0,0,183.61,2103.93Zm9.07,21.72a9.07,9.07,0,1,1-9.07-9.07A9.08,9.08,0,0,1,192.68,2125.64Z" transform="translate(-163.17 -2103.93)"/><path class="cls-2" d="M204.06,2189.3a20.32,20.32,0,0,0-4.12-12.32l-15.87-19.7a0.59,0.59,0,0,0-.91,0l-15.62,19.37a20.24,20.24,0,0,0-4.38,12.65A20.45,20.45,0,1,0,204.06,2189.3Zm-20.45,7.8a9.07,9.07,0,1,1,9.07-9.07A9.08,9.08,0,0,1,183.61,2197.1Z" transform="translate(-163.17 -2103.93)"/></svg>