<svg id="Layer_1" data-name="Layer 1" xmlns="http://www.w3.org/2000/svg" xmlns:xlink="http://www.w3.org/1999/xlink" viewBox="0 0 52.52 105.32"><defs><style>.cls-1{fill:#fdbb30;}.cls-2{fill:url(#linear-gradient);}</style><linearGradient id="linear-gradient" x1="183.61" y1="2037.6" x2="183.61" y2="2079.33" gradientUnits="userSpaceOnUse"><stop offset="0.01" stop-color="#fdbb30" stop-opacity="0.3"/><stop offset="0.4" stop-color="#fdbb30" stop-opacity="0"/></linearGradient></defs><title>icon_1</title><path class="cls-1" d="M183.61,1981.52a26.26,26.26,0,1,0,26.26,26.26A26.26,26.26,0,0,0,183.61,1981.52Zm17.57,29a2.58,2.58,0,0,1-2.57,2.57H188.25v10.35a2.57,2.57,0,0,1-2.56,2.57h-4.16a2.58,2.58,0,0,1-2.57-2.57v-10.35H168.61a2.58,2.58,0,0,1-2.57-2.57v-4.16a2.58,2.58,0,0,1,2.57-2.57H179v-10.35a2.58,2.58,0,0,1,2.57-2.57h4.16a2.57,2.57,0,0,1,2.56,2.57v10.35h10.36a2.58,2.58,0,0,1,2.57,2.57v4.16Z" transform="translate(-157.35 -1981.52)"/><path class="cls-2" d="M209.87,2060.58a26.26,26.26,0,1,0-26.26,26.26A26.26,26.26,0,0,0,209.87,2060.58Zm-8.69,1.42a2.58,2.58,0,0,1-2.57,2.57H188.25v10.35a2.57,2.57,0,0,1-2.56,2.57h-4.16a2.58,2.58,0,0,1-2.57-2.57v-10.35H168.61A2.58,2.58,0,0,1,166,2062v-4.16a2.58,2.58,0,0,1,2.57-2.57H179v-10.35a2.58,2.58,0,0,1,2.57-2.57h4.16a2.57,2.57,0,0,1,2.56,2.57v10.35h10.36a2.58,2.58,0,0,1,2.57,2.57V2062Z" transform="translate(-157.35 -1981.52)"/></svg>