<?xml version="1.0" standalone="no"?>
<!DOCTYPE svg PUBLIC "-//W3C//DTD SVG 20010904//EN"
 "http://www.w3.org/TR/2001/REC-SVG-20010904/DTD/svg10.dtd">
<svg version="1.0" xmlns="http://www.w3.org/2000/svg"
 width="261.000000pt" height="261.000000pt" viewBox="0 0 261.000000 261.000000"
 preserveAspectRatio="xMidYMid meet">
<metadata>
Created by potrace 1.11, written by Peter Selinger 2001-2013
</metadata>
<g transform="translate(0.000000,261.000000) scale(0.100000,-0.100000)"
fill="#000000" stroke="none">
<path d="M1117 2583 c-73 -240 -80 -369 -31 -563 14 -55 99 -286 111 -299 11
-13 79 130 90 189 2 14 8 42 12 62 5 20 7 74 6 120 -5 141 -28 224 -106 384
-53 110 -73 136 -82 107z"/>
<path d="M2275 2090 c-75 -51 -173 -82 -400 -130 -152 -32 -281 -69 -345 -97
-118 -52 -227 -120 -305 -188 -22 -19 -44 -35 -48 -35 -5 0 -29 18 -55 39
-135 112 -364 186 -642 206 -26 2 -78 6 -116 9 -38 3 -109 8 -158 11 -49 4
-100 11 -113 16 -39 15 -45 11 -26 -18 83 -134 449 -484 616 -590 87 -55 154
-90 200 -103 26 -8 47 -17 47 -20 0 -3 -9 -50 -19 -105 -25 -129 -34 -217 -34
-335 0 -198 28 -348 99 -533 31 -80 54 -146 70 -196 5 -14 19 12 112 209 124
264 180 453 189 645 3 66 6 121 7 122 0 0 35 -19 76 -43 178 -105 416 -203
531 -219 24 -3 56 -8 71 -11 15 -3 99 -7 185 -9 87 -2 195 -4 241 -6 45 -1 85
0 88 3 7 8 -150 162 -235 230 -103 82 -199 146 -333 221 -110 61 -305 153
-381 179 l-37 13 67 34 c205 103 433 299 566 486 53 74 121 207 115 225 -1 5
-16 1 -33 -10z"/>
<path d="M657 1104 c-1 -1 -24 -4 -52 -8 -131 -16 -267 -72 -410 -168 -91 -61
-154 -118 -135 -119 236 -19 511 83 655 242 53 58 53 60 -4 58 -28 -2 -52 -4
-54 -5z"/>
<path d="M629 785 c-137 -112 -237 -287 -263 -458 l-6 -38 32 22 c107 77 228
236 274 363 19 54 41 167 32 166 -2 0 -33 -25 -69 -55z"/>
</g>
</svg>
