<?xml version="1.0" standalone="no"?>
<!DOCTYPE svg PUBLIC "-//W3C//DTD SVG 20010904//EN"
 "http://www.w3.org/TR/2001/REC-SVG-20010904/DTD/svg10.dtd">
<svg version="1.0" xmlns="http://www.w3.org/2000/svg"
 width="260.000000pt" height="260.000000pt" viewBox="0 0 260.000000 260.000000"
 preserveAspectRatio="xMidYMid meet">
<metadata>
Created by potrace 1.11, written by Peter Selinger 2001-2013
</metadata>
<g transform="translate(0.000000,260.000000) scale(0.100000,-0.100000)"
fill="#000000" stroke="none">
<path d="M1020 1870 l0 -280 -285 0 -285 0 0 -285 0 -285 285 0 285 0 0 -285
0 -285 285 0 285 0 0 285 0 285 286 0 287 0 -6 83 c-4 45 -7 173 -7 285 l0
202 -280 0 -280 0 0 280 0 280 -285 0 -285 0 0 -280z"/>
</g>
</svg>
